<svg width="23" height="23" viewBox="0 0 23 23" fill="none" xmlns="http://www.w3.org/2000/svg">
<path d="M2.817 17.4167L2.91581 17.1781L2.77846 16.9594C1.78285 15.3742 1.19995 13.5059 1.19995 11.4984C1.19995 5.81028 5.81171 1.19971 11.5 1.19971C17.1874 1.19971 21.7999 5.81031 21.7999 11.4984C21.7999 17.1866 17.1872 21.8002 11.5 21.8002C9.49275 21.8002 7.62621 21.2159 6.04096 20.2209L5.82227 20.0836L5.58373 20.1824L1.75401 21.7694C1.75383 21.7695 1.75365 21.7696 1.75346 21.7697C1.65792 21.8089 1.54971 21.8119 1.44718 21.7698C1.24225 21.6838 1.14667 21.4499 1.23048 21.2471C1.2305 21.2471 1.23052 21.247 1.23054 21.247L2.817 17.4167ZM6.46526 19.544L6.46536 19.5441C7.98193 20.4949 9.72322 21.0002 11.5 21.0002C16.7386 21.0002 20.9999 16.7367 20.9999 11.4984C20.9999 6.26009 16.7384 1.99953 11.5 1.99953C6.26154 1.99953 2.00004 6.26037 2.00004 11.4984C2.00004 13.2752 2.50296 15.0165 3.45642 16.5334L3.81291 17.102L2.80083 19.5461L2.339 20.6614L3.45418 20.1993L5.89658 19.1873L6.46526 19.544Z" fill="#4EAA97" stroke="white"/>
<path d="M14.9649 14.9626L14.9641 14.9634C14.4584 15.4702 13.6345 15.4713 13.1252 14.963L13.125 14.9628L13.1249 14.9627L13.1243 14.9621L13.1216 14.9593L13.1106 14.9484L13.0681 14.9059L12.9066 14.7443L12.33 14.1676L10.5805 12.4178L8.8892 10.726H8.88981L8.03626 9.87242C7.52844 9.3646 7.52844 8.54206 8.03626 8.03424L8.0363 8.0342L8.85547 7.21486L10.234 9.51209L9.55557 10.1905L9.2021 10.544L9.5555 10.8975L12.1 13.4431L12.4535 13.7968L12.8072 13.4431L13.4856 12.7647L15.7851 14.1445L14.9649 14.9626ZM8.03899 9.87518C8.03893 9.87512 8.03894 9.87513 8.039 9.8752L8.03899 9.87518ZM7.45515 9.94832C6.99027 9.24922 7.06612 8.29727 7.68271 7.68069L8.59028 6.77293L7.45515 9.94832Z" fill="white" stroke="white"/>
</svg>
