<svg width="94" height="93" viewBox="0 0 94 93" fill="none" xmlns="http://www.w3.org/2000/svg">
<path d="M63.1746 42.4313C57.8688 42.4313 57.1344 47.6625 57.1344 47.6625H68.4071C68.4071 47.6625 68.4805 42.4313 63.1746 42.4313Z" fill="#BFBFBF"/>
<path d="M37.6 47.6625H27.6125V56.7445H37.1043C38.5363 56.7082 41.2168 56.3086 41.2168 52.3307C41.2168 47.608 37.6 47.6625 37.6 47.6625Z" fill="#BFBFBF"/>
<path d="M47 5.8125C24.2895 5.8125 5.875 24.0311 5.875 46.5C5.875 68.9689 24.2895 87.1875 47 87.1875C69.7105 87.1875 88.125 68.9689 88.125 46.5C88.125 24.0311 69.7105 5.8125 47 5.8125ZM55.6656 30.8063H69.8207V34.984H55.6656V30.8063ZM48.5055 52.7484C48.5055 63.102 37.6 62.775 37.6 62.775H19.7547V28.8082H37.6C43.0344 28.8082 47.3121 31.7689 47.3121 37.8539C47.3121 43.9389 42.0797 44.3203 42.0797 44.3203C48.9828 44.3203 48.5055 52.7484 48.5055 52.7484ZM74.9797 52.1853H57.1895C57.1895 58.4883 63.2297 58.0887 63.2297 58.0887C68.9395 58.0887 68.7375 54.4377 68.7375 54.4377H74.7777C74.7777 64.1373 63.0277 63.4652 63.0277 63.4652C48.9461 63.4652 49.8457 50.4779 49.8457 50.4779C49.8457 50.4779 49.8273 37.4361 63.0277 37.4361C76.9258 37.4543 74.9797 52.1853 74.9797 52.1853Z" fill="#BFBFBF"/>
<path d="M40.0234 38.3806C40.0234 34.8568 37.6 34.8568 37.6 34.8568H27.6125V42.4312H36.9758C38.5914 42.4312 40.0234 41.9045 40.0234 38.3806Z" fill="#BFBFBF"/>
</svg>
