<svg width="84" height="80" viewBox="0 0 84 80" fill="none" xmlns="http://www.w3.org/2000/svg">
<path d="M55.125 27.5C58.606 27.5 61.9444 26.183 64.4058 23.8388C66.8672 21.4946 68.25 18.3152 68.25 15C68.25 11.6848 66.8672 8.50537 64.4058 6.16117C61.9444 3.81696 58.606 2.5 55.125 2.5H28.875C25.394 2.5 22.0556 3.81696 19.5942 6.16117C17.1328 8.50537 15.75 11.6848 15.75 15C15.75 18.3152 17.1328 21.4946 19.5942 23.8388C22.0556 26.183 25.394 27.5 28.875 27.5C25.394 27.5 22.0556 28.817 19.5942 31.1612C17.1328 33.5054 15.75 36.6848 15.75 40C15.75 43.3152 17.1328 46.4946 19.5942 48.8388C22.0556 51.183 25.394 52.5 28.875 52.5C26.2791 52.5 23.7415 53.2331 21.5831 54.6066C19.4248 55.9801 17.7425 57.9324 16.7491 60.2165C15.7557 62.5005 15.4958 65.0139 16.0022 67.4386C16.5086 69.8634 17.7587 72.0907 19.5942 73.8388C21.4298 75.587 23.7684 76.7775 26.3144 77.2598C28.8604 77.7421 31.4994 77.4946 33.8977 76.5485C36.296 75.6024 38.3458 74.0002 39.788 71.9446C41.2302 69.889 42 67.4723 42 65V27.5H55.125Z" fill="#BFBFBF"/>
<path d="M55.125 52.5C62.3737 52.5 68.25 46.9036 68.25 40C68.25 33.0964 62.3737 27.5 55.125 27.5C47.8763 27.5 42 33.0964 42 40C42 46.9036 47.8763 52.5 55.125 52.5Z" fill="#BFBFBF"/>
</svg>
