<svg width="79" height="72" viewBox="0 0 79 72" fill="none" xmlns="http://www.w3.org/2000/svg">
<path fill-rule="evenodd" clip-rule="evenodd" d="M39.5 0.249975C30.2559 0.25115 21.3138 3.35635 14.2732 9.01011C7.23263 14.6639 2.55292 22.4974 1.07118 31.1093C-0.41056 39.7213 1.40234 48.5498 6.18558 56.0158C10.9688 63.4818 18.4104 69.098 27.179 71.86C29.1259 72.2012 29.9603 71.0725 29.9603 70.1012C29.9603 69.13 29.9603 66.925 29.9603 63.8537C19.1412 66.0587 16.8606 58.9187 16.8606 58.9187C16.0998 56.6687 14.4985 54.7562 12.355 53.5375C8.82278 51.28 12.6331 51.3062 12.6331 51.3062C13.8669 51.4707 15.0445 51.8992 16.076 52.5588C17.1076 53.2185 17.9657 54.092 18.585 55.1125C19.6623 56.9361 21.4628 58.2814 23.5908 58.8524C25.7187 59.4234 27.9998 59.1734 29.9325 58.1575C30.0895 56.295 30.9595 54.5501 32.38 53.2487C23.7581 52.3037 14.6634 49.1537 14.6634 35.0837C14.6004 31.4294 16.0352 27.8934 18.6684 25.2137C17.4765 22.0485 17.6159 18.5724 19.0578 15.5012C19.0578 15.5012 22.3118 14.5037 29.7656 19.255C36.1388 17.6142 42.8612 17.6142 49.2343 19.255C56.6603 14.5037 59.9143 15.5012 59.9143 15.5012C61.3562 18.5724 61.4956 22.0485 60.3037 25.2137C62.9369 27.8934 64.3718 31.4294 64.3087 35.0837C64.3087 49.2062 55.214 52.3037 46.5365 53.2225C47.4661 54.1117 48.1829 55.1787 48.6387 56.3515C49.0944 57.5242 49.2786 58.7756 49.1787 60.0212C49.1787 64.93 49.1787 68.8937 49.1787 70.1012C49.1787 71.3087 49.874 72.2275 51.96 71.86C60.7402 69.0946 68.1894 63.4675 72.9719 55.9878C77.7544 48.5081 79.5573 39.665 78.0573 31.0443C76.5573 22.4237 71.8526 14.5892 64.7867 8.946C57.7209 3.30275 48.7561 0.219795 39.5 0.249975Z" fill="#BFBFBF"/>
</svg>
