<svg width="104" height="96" viewBox="0 0 104 96" fill="none" xmlns="http://www.w3.org/2000/svg">
<path fill-rule="evenodd" clip-rule="evenodd" d="M104 0H0V96H104V0ZM52.1761 71.4061C52.1761 79.481 46.9678 84.183 37.9891 84.183C29.4142 84.183 24.2057 79.481 23.9755 72.2829V72.0704H32.4069V72.2298C32.5795 75.1782 34.4788 77.2499 37.874 77.2499C41.5577 77.2499 43.4859 75.2045 43.4859 71.353V44.8704H52.1761V71.4061ZM92.1392 71.7779C92.1392 79.3747 85.7508 84.183 75.3917 84.183C65.4638 84.183 59.1906 79.8003 58.7018 72.9997L58.6726 72.5747H67.0467L67.0751 72.8403C67.392 75.7094 70.7588 77.6486 75.6219 77.6486C80.2547 77.6486 83.4489 75.6032 83.4489 72.6547V72.6278C83.4489 70.105 81.4057 68.697 76.2549 67.7139L71.8806 66.8909C63.2479 65.2704 59.5358 61.5514 59.5358 55.7344V55.7075C59.5358 48.5888 66.1544 43.8874 75.3626 43.8874C85.0602 43.8874 90.758 48.6157 91.3044 55.017L91.3335 55.3626H83.1612L83.1036 55.0438C82.6141 52.3078 79.7368 50.3955 75.3626 50.3955C71.075 50.4218 68.2261 52.2278 68.2261 55.097V55.1232C68.2261 57.6205 70.2409 59.1078 75.1324 60.0378L79.535 60.8608C88.3119 62.5344 92.1392 65.7747 92.1392 71.7517V71.7779Z" fill="#BFBFBF"/>
</svg>
