<svg width="106" height="107" viewBox="0 0 106 107" fill="none" xmlns="http://www.w3.org/2000/svg">
<g clip-path="url(#clip0_1_2258)">
<path fill-rule="evenodd" clip-rule="evenodd" d="M99.375 49.4346C99.375 32.12 78.6119 18.0836 53 18.0836C27.3881 18.0836 6.625 32.12 6.625 49.4346C6.625 64.865 23.1259 77.6622 44.8383 80.2727V90.2762L60.6595 90.2698V80.3252C64.4069 79.9139 68.1111 79.1703 71.7292 78.1029L78.1518 90.2812L96.031 90.2732L85.2555 71.933C93.9508 66.235 99.375 58.2691 99.375 49.4346ZM24.8494 51.7752C24.8494 39.9384 40.6315 30.3418 60.099 30.3418C79.5666 30.3418 93.9322 36.9053 93.9322 51.7752C93.9745 55.442 92.9237 59.0369 90.9164 62.0932C88.9091 65.1496 86.038 67.5262 82.6757 68.9146C82.3575 68.7021 82.0282 68.5068 81.6892 68.3298C80.2495 67.6656 78.7665 67.1017 77.2505 66.6419C77.2505 66.6419 91.0779 65.6053 91.0779 51.709C91.0779 37.8127 76.6075 37.5506 76.6075 37.5506H44.8383V71.0727C33.0256 67.6106 24.8494 60.2831 24.8494 51.7752ZM70.3704 57.9451L60.788 57.9485L60.7927 48.9832L70.3704 48.9882C70.9576 48.9432 71.5475 49.0254 72.1006 49.2293C72.6538 49.4332 73.1574 49.754 73.5777 50.1704C73.998 50.5867 74.3253 51.0889 74.5377 51.6433C74.75 52.1977 74.8426 52.7915 74.8092 53.3849C74.8272 53.9819 74.7254 54.5765 74.5097 55.1327C74.294 55.6889 73.969 56.1953 73.5543 56.6213C73.1395 57.0473 72.6436 57.3842 72.0964 57.6115C71.5492 57.8388 70.9621 57.953 70.3704 57.9451ZM60.6562 69.6302H64.9045C65.3055 69.636 65.701 69.7255 66.0662 69.8929C66.4313 70.0604 66.7583 70.3022 67.0265 70.6032C67.6734 71.2325 68.2408 71.94 68.7158 72.7098C66.0406 73.0194 63.3506 73.1818 60.6578 73.1963L60.6562 69.6302Z" fill="#BFBFBF"/>
</g>
<defs>
<clipPath id="clip0_1_2258">
<rect width="106" height="107" fill="white"/>
</clipPath>
</defs>
</svg>
