<svg width="29" height="28" viewBox="0 0 29 28" fill="none" xmlns="http://www.w3.org/2000/svg">
<g clip-path="url(#clip0_1_1758)">
<path d="M14.637 0C6.90415 0 0.636963 6.26719 0.636963 14C0.636963 21.7328 6.90415 28 14.637 28C22.3698 28 28.637 21.7328 28.637 14C28.637 6.26719 22.3698 0 14.637 0ZM17.7268 11.6266L17.5682 13.7211H15.419V20.9945H12.7065V13.7211H11.2573V11.6266H12.7065V10.2211C12.7065 9.60312 12.7229 8.64609 13.1713 8.05C13.6471 7.42109 14.2979 6.99453 15.419 6.99453C17.2456 6.99453 18.0112 7.25703 18.0112 7.25703L17.6502 9.40078C17.6502 9.40078 17.0487 9.22578 16.4854 9.22578C15.9221 9.22578 15.419 9.42813 15.419 9.99141V11.6266H17.7268Z" fill="black"/>
</g>
<defs>
<clipPath id="clip0_1_1758">
<rect width="28" height="28" fill="white" transform="translate(0.636963)"/>
</clipPath>
</defs>
</svg>
