<svg width="228" height="38" viewBox="0 0 228 38" fill="none" xmlns="http://www.w3.org/2000/svg">
<path d="M39.624 30C39.3893 30 39.1867 29.9147 39.016 29.744C38.8453 29.5733 38.76 29.3707 38.76 29.136V8.464C38.76 8.22933 38.8453 8.02667 39.016 7.856C39.1867 7.68533 39.3893 7.6 39.624 7.6H48.84C50.8453 7.6 52.6373 7.94133 54.216 8.624C55.7947 9.28533 57.0533 10.2667 57.992 11.568C58.952 12.8693 59.464 14.48 59.528 16.4C59.5707 17.3173 59.592 18.128 59.592 18.832C59.592 19.5147 59.5707 20.2933 59.528 21.168C59.4427 23.1733 58.952 24.8373 58.056 26.16C57.16 27.4613 55.9333 28.432 54.376 29.072C52.84 29.6907 51.048 30 49 30H39.624ZM46.76 23.76H48.84C49.3093 23.76 49.7253 23.6747 50.088 23.504C50.472 23.312 50.7813 23.024 51.016 22.64C51.2507 22.256 51.3787 21.7653 51.4 21.168C51.4427 20.5493 51.464 19.9947 51.464 19.504C51.4853 19.0133 51.4853 18.5227 51.464 18.032C51.464 17.52 51.4427 16.976 51.4 16.4C51.3573 15.504 51.0693 14.8533 50.536 14.448C50.024 14.0427 49.4053 13.84 48.68 13.84H46.76V23.76ZM72.6555 30.32C70.6075 30.32 68.7942 30.0107 67.2155 29.392C65.6582 28.7733 64.4422 27.8133 63.5675 26.512C62.6928 25.2107 62.2555 23.5573 62.2555 21.552V8.464C62.2555 8.22933 62.3408 8.02667 62.5115 7.856C62.6822 7.68533 62.8848 7.6 63.1195 7.6H69.3915C69.6262 7.6 69.8288 7.68533 69.9995 7.856C70.1702 8.02667 70.2555 8.22933 70.2555 8.464V21.424C70.2555 22.2133 70.4475 22.8213 70.8315 23.248C71.2368 23.6747 71.8342 23.888 72.6235 23.888C73.4128 23.888 73.9995 23.6747 74.3835 23.248C74.7888 22.8213 74.9915 22.2133 74.9915 21.424V8.464C74.9915 8.22933 75.0768 8.02667 75.2475 7.856C75.4182 7.68533 75.6208 7.6 75.8555 7.6H82.1275C82.3622 7.6 82.5648 7.68533 82.7355 7.856C82.9062 8.02667 82.9915 8.22933 82.9915 8.464V21.552C82.9915 23.5573 82.5542 25.2107 81.6795 26.512C80.8048 27.8133 79.5888 28.7733 78.0315 29.392C76.4742 30.0107 74.6822 30.32 72.6555 30.32ZM96.4345 30.32C94.3438 30.32 92.5092 30 90.9305 29.36C89.3732 28.72 88.1358 27.76 87.2185 26.48C86.3225 25.1787 85.8318 23.5787 85.7465 21.68C85.7252 20.8053 85.7145 19.8773 85.7145 18.896C85.7145 17.9147 85.7252 16.9653 85.7465 16.048C85.8318 14.1707 86.3225 12.5813 87.2185 11.28C88.1145 9.97867 89.3518 8.98667 90.9305 8.304C92.5092 7.62133 94.3438 7.28 96.4345 7.28C98.5252 7.28 100.36 7.62133 101.939 8.304C103.517 8.98667 104.755 9.97867 105.651 11.28C106.568 12.5813 107.059 14.1707 107.123 16.048C107.165 16.9653 107.187 17.9147 107.187 18.896C107.187 19.8773 107.165 20.8053 107.123 21.68C107.037 23.5787 106.536 25.1787 105.619 26.48C104.723 27.76 103.485 28.72 101.907 29.36C100.349 30 98.5252 30.32 96.4345 30.32ZM96.4345 24.08C97.1385 24.08 97.7038 23.8773 98.1305 23.472C98.5572 23.0453 98.7812 22.384 98.8025 21.488C98.8452 20.5707 98.8665 19.664 98.8665 18.768C98.8665 17.872 98.8452 16.9867 98.8025 16.112C98.7812 15.5147 98.6638 15.024 98.4505 14.64C98.2585 14.256 97.9918 13.9787 97.6505 13.808C97.3092 13.616 96.9038 13.52 96.4345 13.52C95.9865 13.52 95.5812 13.616 95.2185 13.808C94.8772 13.9787 94.5998 14.256 94.3865 14.64C94.1945 15.024 94.0878 15.5147 94.0665 16.112C94.0452 16.9867 94.0345 17.872 94.0345 18.768C94.0345 19.664 94.0452 20.5707 94.0665 21.488C94.1092 22.384 94.3332 23.0453 94.7385 23.472C95.1652 23.8773 95.7305 24.08 96.4345 24.08ZM119.417 30.32C117.049 30.32 115.097 30 113.561 29.36C112.025 28.72 110.873 27.8773 110.105 26.832C109.337 25.7867 108.931 24.6773 108.889 23.504C108.889 23.312 108.953 23.152 109.081 23.024C109.23 22.8747 109.401 22.8 109.593 22.8H115.673C116.014 22.8 116.27 22.8533 116.441 22.96C116.633 23.0453 116.835 23.1733 117.049 23.344C117.262 23.4933 117.475 23.632 117.689 23.76C117.923 23.8667 118.179 23.952 118.457 24.016C118.755 24.0587 119.075 24.08 119.417 24.08C120.142 24.08 120.718 24.0053 121.145 23.856C121.593 23.6853 121.817 23.4613 121.817 23.184C121.817 22.928 121.689 22.7147 121.433 22.544C121.198 22.3733 120.782 22.224 120.185 22.096C119.587 21.9467 118.755 21.808 117.689 21.68C116.003 21.4453 114.542 21.0507 113.305 20.496C112.067 19.9413 111.107 19.184 110.424 18.224C109.763 17.2427 109.433 16.048 109.433 14.64C109.433 13.1893 109.838 11.9093 110.649 10.8C111.481 9.69067 112.622 8.82667 114.073 8.208C115.545 7.58933 117.251 7.28 119.193 7.28C120.793 7.28 122.211 7.49333 123.449 7.92C124.686 8.32533 125.731 8.86933 126.585 9.552C127.438 10.2133 128.089 10.928 128.537 11.696C128.985 12.464 129.219 13.2 129.241 13.904C129.241 14.096 129.166 14.2667 129.017 14.416C128.889 14.544 128.739 14.608 128.569 14.608H122.169C121.87 14.608 121.625 14.5653 121.433 14.48C121.262 14.3947 121.081 14.2667 120.889 14.096C120.782 13.9893 120.579 13.872 120.281 13.744C120.003 13.5947 119.641 13.52 119.193 13.52C118.659 13.52 118.265 13.6053 118.009 13.776C117.774 13.9253 117.657 14.1387 117.657 14.416C117.657 14.608 117.753 14.7893 117.945 14.96C118.137 15.1307 118.489 15.28 119.001 15.408C119.513 15.536 120.249 15.664 121.209 15.792C123.342 16.048 125.049 16.464 126.329 17.04C127.63 17.5947 128.569 18.3413 129.145 19.28C129.742 20.2187 130.041 21.3813 130.041 22.768C130.041 24.3253 129.571 25.6693 128.633 26.8C127.715 27.9307 126.457 28.8053 124.857 29.424C123.257 30.0213 121.443 30.32 119.417 30.32ZM133.249 30C133.014 30 132.812 29.9147 132.641 29.744C132.47 29.5733 132.385 29.3707 132.385 29.136V8.464C132.385 8.22933 132.47 8.02667 132.641 7.856C132.812 7.68533 133.014 7.6 133.249 7.6H139.361C139.596 7.6 139.798 7.68533 139.969 7.856C140.14 8.02667 140.225 8.22933 140.225 8.464V14.8L143.841 8.304C143.948 8.13333 144.097 7.97333 144.289 7.824C144.502 7.67467 144.78 7.6 145.121 7.6H152.193C152.385 7.6 152.545 7.67467 152.673 7.824C152.822 7.952 152.897 8.112 152.897 8.304C152.897 8.432 152.865 8.54933 152.801 8.656L147.041 18.32L153.345 28.944C153.409 29.0293 153.441 29.1467 153.441 29.296C153.441 29.488 153.366 29.6587 153.217 29.808C153.089 29.936 152.929 30 152.737 30H145.441C145.014 30 144.694 29.904 144.481 29.712C144.289 29.4987 144.172 29.3493 144.129 29.264L140.225 22.288V29.136C140.225 29.3707 140.14 29.5733 139.969 29.744C139.798 29.9147 139.596 30 139.361 30H133.249ZM156.124 30C155.889 30 155.687 29.9147 155.516 29.744C155.345 29.5733 155.26 29.3707 155.26 29.136V8.464C155.26 8.22933 155.345 8.02667 155.516 7.856C155.687 7.68533 155.889 7.6 156.124 7.6H162.652C162.887 7.6 163.089 7.68533 163.26 7.856C163.431 8.02667 163.516 8.22933 163.516 8.464V29.136C163.516 29.3707 163.431 29.5733 163.26 29.744C163.089 29.9147 162.887 30 162.652 30H156.124ZM167.905 30C167.671 30 167.468 29.9147 167.297 29.744C167.127 29.5733 167.041 29.3707 167.041 29.136V8.464C167.041 8.22933 167.127 8.02667 167.297 7.856C167.468 7.68533 167.671 7.6 167.905 7.6H174.305C174.54 7.6 174.743 7.68533 174.913 7.856C175.084 8.02667 175.169 8.22933 175.169 8.464V23.44H184.033C184.268 23.44 184.471 23.5253 184.641 23.696C184.812 23.8667 184.897 24.0693 184.897 24.304V29.136C184.897 29.3707 184.812 29.5733 184.641 29.744C184.471 29.9147 184.268 30 184.033 30H167.905ZM187.937 30C187.702 30 187.499 29.9147 187.329 29.744C187.158 29.5733 187.073 29.3707 187.073 29.136V8.464C187.073 8.22933 187.158 8.02667 187.329 7.856C187.499 7.68533 187.702 7.6 187.937 7.6H194.337C194.571 7.6 194.774 7.68533 194.945 7.856C195.115 8.02667 195.201 8.22933 195.201 8.464V23.44H204.065C204.299 23.44 204.502 23.5253 204.673 23.696C204.843 23.8667 204.929 24.0693 204.929 24.304V29.136C204.929 29.3707 204.843 29.5733 204.673 29.744C204.502 29.9147 204.299 30 204.065 30H187.937ZM216.448 30.32C214.08 30.32 212.128 30 210.592 29.36C209.056 28.72 207.904 27.8773 207.136 26.832C206.368 25.7867 205.962 24.6773 205.92 23.504C205.92 23.312 205.984 23.152 206.112 23.024C206.261 22.8747 206.432 22.8 206.624 22.8H212.704C213.045 22.8 213.301 22.8533 213.472 22.96C213.664 23.0453 213.866 23.1733 214.08 23.344C214.293 23.4933 214.506 23.632 214.72 23.76C214.954 23.8667 215.21 23.952 215.488 24.016C215.786 24.0587 216.106 24.08 216.448 24.08C217.173 24.08 217.749 24.0053 218.176 23.856C218.624 23.6853 218.848 23.4613 218.848 23.184C218.848 22.928 218.72 22.7147 218.464 22.544C218.229 22.3733 217.813 22.224 217.216 22.096C216.618 21.9467 215.786 21.808 214.72 21.68C213.034 21.4453 211.573 21.0507 210.336 20.496C209.098 19.9413 208.138 19.184 207.456 18.224C206.794 17.2427 206.464 16.048 206.464 14.64C206.464 13.1893 206.869 11.9093 207.68 10.8C208.512 9.69067 209.653 8.82667 211.104 8.208C212.576 7.58933 214.282 7.28 216.224 7.28C217.824 7.28 219.242 7.49333 220.48 7.92C221.717 8.32533 222.762 8.86933 223.616 9.552C224.469 10.2133 225.12 10.928 225.568 11.696C226.016 12.464 226.25 13.2 226.272 13.904C226.272 14.096 226.197 14.2667 226.048 14.416C225.92 14.544 225.77 14.608 225.6 14.608H219.2C218.901 14.608 218.656 14.5653 218.464 14.48C218.293 14.3947 218.112 14.2667 217.92 14.096C217.813 13.9893 217.61 13.872 217.312 13.744C217.034 13.5947 216.672 13.52 216.224 13.52C215.69 13.52 215.296 13.6053 215.04 13.776C214.805 13.9253 214.688 14.1387 214.688 14.416C214.688 14.608 214.784 14.7893 214.976 14.96C215.168 15.1307 215.52 15.28 216.032 15.408C216.544 15.536 217.28 15.664 218.24 15.792C220.373 16.048 222.08 16.464 223.36 17.04C224.661 17.5947 225.6 18.3413 226.176 19.28C226.773 20.2187 227.072 21.3813 227.072 22.768C227.072 24.3253 226.602 25.6693 225.664 26.8C224.746 27.9307 223.488 28.8053 221.888 29.424C220.288 30.0213 218.474 30.32 216.448 30.32Z" fill="white"/>
<path d="M23.2372 14.3358C18.9304 14.0297 16.4175 15.4321 15.0864 16.6139C13.748 15.4179 11.2138 14.0226 6.86428 14.343C6.76461 14.3501 6.66493 14.3572 6.57239 14.3572L6.88862 11.8716C6.91309 11.6793 7.04159 11.5121 7.22161 11.4401C12.3995 9.36936 17.5245 9.33126 22.5966 11.4659C22.7719 11.5397 22.8964 11.7046 22.9208 11.8932L23.2372 14.3358Z" fill="white"/>
<path d="M28.4193 20.7717C26.9243 18.7927 24.5467 17.5114 21.8772 17.5114C19.0581 17.5114 16.5666 18.9422 15.086 21.1063C13.6053 18.9422 11.1137 17.5114 8.29478 17.5114C5.62527 17.5114 3.24757 18.7927 1.74563 20.7717C-0.58932 18.2446 -0.0625447 15.2618 0.400098 13.8381C0.492734 13.5463 0.877078 13.5106 1.03376 13.7741C1.52491 14.6069 2.7778 15.8028 5.9242 15.81C6.25163 15.81 6.60044 15.7957 6.97063 15.7673C13.2921 15.2903 15.086 18.7927 15.086 18.7927C15.086 18.7927 16.8799 15.2903 23.2013 15.7673C23.5714 15.7957 23.9202 15.81 24.2406 15.81C27.387 15.8028 28.6399 14.6069 29.1312 13.7741C29.2878 13.5106 29.6722 13.5463 29.7647 13.8381C30.2274 15.2618 30.7613 18.2517 28.4193 20.7717Z" fill="white"/>
<path d="M17.1715 32.4536C16.9437 33.2508 16.4312 34.1763 15.3136 34.9309C15.1783 35.0234 14.9932 35.0234 14.858 34.9309C13.7403 34.1763 13.2278 33.2508 13 32.4536C13.8115 31.8841 14.5234 31.1651 15.0858 30.3464C15.6481 31.1651 16.36 31.8841 17.1715 32.4536Z" fill="white"/>
<path d="M21.8773 18.9346C18.1258 18.9346 15.0862 21.9742 15.0862 25.7257C15.0862 29.4773 18.1258 32.5169 21.8773 32.5169C25.6289 32.5169 28.6685 29.4773 28.6685 25.7257C28.6685 21.9742 25.6289 18.9346 21.8773 18.9346ZM21.8773 30.2675C19.3716 30.2675 17.3356 28.2315 17.3356 25.7257C17.3356 23.22 19.3716 21.184 21.8773 21.184C24.376 21.184 26.4191 23.22 26.4191 25.7257C26.4191 28.2315 24.376 30.2675 21.8773 30.2675Z" fill="white"/>
<path d="M29.1029 9.52405L27.2591 10.1362V12.699C27.2591 13.0976 26.9388 13.4109 26.5472 13.4109C26.1557 13.4109 25.8353 13.0976 25.8353 12.699V10.6061L24.1697 11.1613C23.9775 10.7129 23.6073 10.3427 23.1516 10.1505C20.4679 9.0257 17.713 8.44913 14.9581 8.44913C12.2388 8.44913 9.45525 9.01153 6.69328 10.122C6.24471 10.3 5.88877 10.6345 5.67527 11.0546L1.06238 9.52406C0.59965 9.3746 0.59965 8.68402 1.06238 8.53455L14.417 4.10675C14.8513 3.96442 15.314 3.96442 15.7482 4.10675L29.1029 8.53455C29.5655 8.68401 29.5655 9.37458 29.1029 9.52405Z" fill="white"/>
<path d="M21.8771 22.6084C20.1544 22.6084 18.7592 24.0036 18.7592 25.7264C18.7592 27.442 20.1544 28.8444 21.8771 28.8444C23.5928 28.8444 24.9951 27.442 24.9951 25.7264C24.9951 24.0036 23.5928 22.6084 21.8771 22.6084ZM20.9668 25.731C20.5647 25.731 20.2374 25.4037 20.2374 25.0017C20.2374 24.9835 20.2381 24.9654 20.2394 24.9477C20.2671 24.5706 20.5828 24.2723 20.9668 24.2723C21.3689 24.2723 21.6961 24.5996 21.6961 25.0017C21.6961 25.3971 21.3622 25.731 20.9668 25.731Z" fill="white"/>
<path d="M8.29551 22.6084C6.57285 22.6084 5.17761 24.0036 5.17761 25.7264C5.17761 27.442 6.57285 28.8444 8.29551 28.8444C10.0112 28.8444 11.4136 27.442 11.4136 25.7264C11.4136 24.0036 10.0112 22.6084 8.29551 22.6084ZM7.38516 25.731C6.98309 25.731 6.65583 25.4037 6.65583 25.0017C6.65583 24.9835 6.65643 24.9654 6.65783 24.9477C6.68555 24.5706 7.00125 24.2723 7.38516 24.2723C7.78733 24.2723 8.11459 24.5996 8.11459 25.0017C8.11459 25.3971 7.78064 25.731 7.38516 25.731Z" fill="white"/>
<path d="M8.29568 18.9346C4.54412 18.9346 1.50452 21.9742 1.50452 25.7257C1.50452 29.4773 4.54412 32.5169 8.29568 32.5169C12.0472 32.5169 15.0868 29.4773 15.0868 25.7257C15.0868 21.9742 12.0472 18.9346 8.29568 18.9346ZM8.29568 30.2675C5.78989 30.2675 3.75396 28.2315 3.75396 25.7257C3.75396 23.22 5.7899 21.184 8.29568 21.184C10.7943 21.184 12.8374 23.22 12.8374 25.7257C12.8374 28.2315 10.7943 30.2675 8.29568 30.2675Z" fill="white"/>
</svg>
