<svg width="1440" height="757" viewBox="0 0 1440 757" fill="none" xmlns="http://www.w3.org/2000/svg">
<mask id="mask0_1_2279" style="mask-type:alpha" maskUnits="userSpaceOnUse" x="-70" y="0" width="1510" height="757">
<path fill-rule="evenodd" clip-rule="evenodd" d="M-70 41.8188C-70 41.8188 370.417 0 685 0C999.583 0 1440 41.8188 1440 41.8188V757H-70L-70 41.8188Z" fill="#0081FE"/>
</mask>
<g mask="url(#mask0_1_2279)">
<path d="M1665.29 43.2131C1699.1 186.016 1615.92 321.571 1487.35 351.014C1358.79 380.458 1223.27 294.987 1189.47 152.184C1155.66 9.38063 1238.84 -126.174 1367.41 -155.618C1495.97 -185.061 1631.48 -99.5901 1665.29 43.2131Z" stroke="white" stroke-width="120"/>
<path opacity="0.35" d="M113.287 740.201C113.287 756.532 104.235 773.953 84.3287 788.416C64.4533 802.857 35.5122 812.711 2.19633 812.711C-31.1195 812.711 -60.0606 802.857 -79.936 788.416C-99.8422 773.953 -108.894 756.532 -108.894 740.201C-108.894 723.869 -99.8422 706.448 -79.936 691.985C-60.0606 677.545 -31.1195 667.69 2.19633 667.69C35.5122 667.69 64.4533 677.545 84.3287 691.985C104.235 706.448 113.287 723.869 113.287 740.201Z" stroke="white" stroke-width="60"/>
</g>
</svg>
