<svg width="30" height="28" viewBox="0 0 30 28" fill="none" xmlns="http://www.w3.org/2000/svg">
<g clip-path="url(#clip0_1_1752)">
<path d="M15.1369 16.4609C16.5416 16.4609 17.6914 15.3562 17.6914 13.9945C17.6914 13.4585 17.5102 12.9609 17.21 12.5562C16.7455 11.9382 15.9922 11.5281 15.1426 11.5281C14.293 11.5281 13.5397 11.9328 13.0752 12.5562C12.775 12.9609 12.5938 13.4585 12.5938 13.9945C12.5881 15.3562 13.7322 16.4609 15.1369 16.4609Z" fill="black"/>
<path d="M20.7104 10.9867V8.91953V8.61328H20.3932L18.2522 8.61875L18.2635 10.9922L20.7104 10.9867Z" fill="black"/>
<path d="M19.1018 14C19.1018 16.111 17.3233 17.8282 15.137 17.8282C12.9506 17.8282 11.1721 16.111 11.1721 14C11.1721 13.4915 11.2797 13.0047 11.4667 12.5618H9.30298V18.293C9.30298 19.0313 9.92603 19.6329 10.6907 19.6329H19.5833C20.3479 19.6329 20.9709 19.0313 20.9709 18.293V12.5618H18.8073C18.9999 13.0047 19.1018 13.4915 19.1018 14Z" fill="black"/>
<path d="M15.137 0C7.12798 0 0.636963 6.26719 0.636963 14C0.636963 21.7328 7.12798 28 15.137 28C23.1459 28 29.637 21.7328 29.637 14C29.637 6.26719 23.1459 0 15.137 0ZM22.387 12.5617V18.293C22.387 19.7859 21.1295 21 19.5833 21H10.6907C9.14438 21 7.88696 19.7859 7.88696 18.293V12.5617V9.70156C7.88696 8.20859 9.14438 6.99453 10.6907 6.99453H19.5833C21.1295 6.99453 22.387 8.20859 22.387 9.70156V12.5617Z" fill="black"/>
</g>
<defs>
<clipPath id="clip0_1_1752">
<rect width="29" height="28" fill="white" transform="translate(0.636963)"/>
</clipPath>
</defs>
</svg>
