                        <svg width="380" height="401" viewBox="0 0 380 401" fill="none" xmlns="http://www.w3.org/2000/svg">
                            <rect width="380" height="401" rx="15" fill="#117DF4"/>
                            <path d="M33.8 58.4C31.1867 58.4 28.8933 58.0133 26.92 57.24C24.9467 56.4667 23.3067 55.3867 22 54L25.56 48.92C27.24 51.48 29.6267 52.76 32.72 52.76C33.6533 52.76 34.4533 52.56 35.12 52.16C35.8133 51.7333 36.16 51.24 36.16 50.68C36.16 50.0667 35.8 49.5733 35.08 49.2C34.3867 48.8267 33.2667 48.4 31.72 47.92C29.8533 47.3333 28.3067 46.76 27.08 46.2C25.8533 45.6133 24.7867 44.76 23.88 43.64C22.9733 42.4933 22.52 41.0267 22.52 39.24C22.52 37.64 22.96 36.24 23.84 35.04C24.7467 33.8133 25.9867 32.8667 27.56 32.2C29.16 31.5333 30.9467 31.2 32.92 31.2C34.3333 31.2 35.4533 31.3467 36.28 31.64C37.1333 31.9333 38.0267 32.3467 38.96 32.88C39.7067 33.3067 40.36 33.6267 40.92 33.84C41.5067 34.0267 42.2267 34.0933 43.08 34.04L41.24 40.64L40.8 40.68C40.16 40.68 39.56 40.5333 39 40.24C38.4667 39.92 37.8667 39.4533 37.2 38.84C36.4 38.1733 35.6933 37.6667 35.08 37.32C34.4667 36.9733 33.7467 36.8 32.92 36.8C31.0267 36.8 30.08 37.52 30.08 38.96C30.08 39.5467 30.44 40.04 31.16 40.44C31.9067 40.84 33.0533 41.32 34.6 41.88C36.4667 42.5467 38.0133 43.1867 39.24 43.8C40.4667 44.4133 41.52 45.2667 42.4 46.36C43.3067 47.4267 43.76 48.7733 43.76 50.4C43.76 51.9467 43.3333 53.3333 42.48 54.56C41.6533 55.76 40.48 56.7067 38.96 57.4C37.4667 58.0667 35.7467 58.4 33.8 58.4ZM64.75 31.6V37.4H53.15V43.12C53.79 42.3467 54.4567 41.7333 55.15 41.28C55.8433 40.8 56.4833 40.56 57.07 40.56C57.6033 40.56 58.0433 40.68 58.39 40.92C58.7633 41.1333 59.2033 41.48 59.71 41.96C60.2167 42.4933 60.6833 42.8933 61.11 43.16C61.5633 43.4 62.1233 43.48 62.79 43.4L60.95 48.64C60.8433 48.6667 60.6833 48.68 60.47 48.68C59.7767 48.68 59.1767 48.5067 58.67 48.16C58.1633 47.8133 57.6033 47.3333 56.99 46.72C56.67 46.3733 56.4033 46.12 56.19 45.96C56.0033 45.8 55.8167 45.72 55.63 45.72C54.7233 45.72 53.8967 46.64 53.15 48.48V52.2H64.75V58H46.75V31.6H64.75ZM67.3609 58C67.2543 57.36 67.2009 56.5467 67.2009 55.56C67.2009 52.9733 67.6543 50.0133 68.5609 46.68C69.4943 43.3467 70.7343 40.2533 72.2809 37.4C73.8276 34.5467 75.4676 32.48 77.2009 31.2L77.2409 31.24V31.2H84.0809L92.9609 58H85.0009L83.5209 52.88H74.9209C75.0009 54.9067 75.2809 56.6133 75.7609 58H67.3609ZM81.8409 47.08L78.6809 36.12C77.8809 37.56 77.1743 39.24 76.5609 41.16C75.9476 43.08 75.4943 45.0533 75.2009 47.08H81.8409ZM95.7734 31.6H109.013C111.493 31.6 113.427 32.3067 114.813 33.72C116.2 35.1333 116.893 37.04 116.893 39.44C116.893 41.2533 116.533 42.8 115.813 44.08C115.093 45.3333 113.987 46.2533 112.493 46.84C114.093 48.3333 115.147 50.12 115.653 52.2C116.187 54.28 116.453 56.2133 116.453 58H109.653C109.653 56.2133 109.547 54.7333 109.333 53.56C109.147 52.3867 108.507 51.3333 107.413 50.4C106.32 49.44 104.573 49.0267 102.173 49.16V58H95.7734V31.6ZM106.213 43.48C107.627 43.48 108.627 43.24 109.213 42.76C109.8 42.28 110.093 41.44 110.093 40.24C110.093 39.2267 109.787 38.5067 109.173 38.08C108.587 37.6267 107.6 37.4 106.213 37.4H102.173V43.48H106.213ZM131.56 37.2C130.066 37.2 128.92 37.76 128.12 38.88C127.32 40 126.92 41.9733 126.92 44.8C126.92 47.6267 127.32 49.6 128.12 50.72C128.92 51.84 130.066 52.4 131.56 52.4C132.52 52.4 133.546 52.1867 134.64 51.76C135.733 51.3067 136.72 50.5067 137.6 49.36L141.52 53.56C140.48 55.1067 139.12 56.3067 137.44 57.16C135.76 57.9867 133.8 58.4 131.56 58.4C128.946 58.4 126.72 57.84 124.88 56.72C123.04 55.6 121.653 54.0133 120.72 51.96C119.786 49.9067 119.32 47.52 119.32 44.8C119.32 42.08 119.786 39.6933 120.72 37.64C121.653 35.5867 123.04 34 124.88 32.88C126.72 31.76 128.946 31.2 131.56 31.2C132.706 31.2 133.64 31.3333 134.36 31.6C135.08 31.8667 135.853 32.2667 136.68 32.8C137.4 33.2533 138.04 33.5867 138.6 33.8C139.186 34.0133 139.933 34.0933 140.84 34.04L139 40.64L138.52 40.68C137.853 40.68 137.253 40.5333 136.72 40.24C136.213 39.9467 135.586 39.4933 134.84 38.88C134.146 38.2933 133.573 37.8667 133.12 37.6C132.666 37.3333 132.146 37.2 131.56 37.2ZM150.728 31.6V41.88H159.128V31.6H165.528V58H159.128V47.68H150.728V58H144.328V31.6H150.728ZM22.4 98C22.2933 97.36 22.24 96.5467 22.24 95.56C22.24 92.9733 22.6933 90.0133 23.6 86.68C24.5333 83.3467 25.7733 80.2533 27.32 77.4C28.8667 74.5467 30.5067 72.48 32.24 71.2L32.28 71.24V71.2H39.12L48 98H40.04L38.56 92.88H29.96C30.04 94.9067 30.32 96.6133 30.8 98H22.4ZM36.88 87.08L33.72 76.12C32.92 77.56 32.2133 79.24 31.6 81.16C30.9867 83.08 30.5333 85.0533 30.24 87.08H36.88ZM57.2125 86.48V98H50.8125V71.6H57.2125L63.6925 86.28L70.1325 71.6H76.5325V98H70.1325V86.48L66.5325 95.28H60.8125L57.2125 86.48ZM92.0191 98.4C89.5391 98.4 87.4057 97.84 85.6191 96.72C83.8324 95.5733 82.4724 93.9867 81.5391 91.96C80.6324 89.9067 80.1791 87.52 80.1791 84.8C80.1791 82.08 80.6324 79.7067 81.5391 77.68C82.4724 75.6267 83.8324 74.04 85.6191 72.92C87.4057 71.7733 89.5391 71.2 92.0191 71.2C94.4991 71.2 96.6324 71.7733 98.4191 72.92C100.206 74.04 101.552 75.6267 102.459 77.68C103.392 79.7067 103.859 82.08 103.859 84.8C103.859 87.52 103.392 89.9067 102.459 91.96C101.552 93.9867 100.206 95.5733 98.4191 96.72C96.6324 97.84 94.4991 98.4 92.0191 98.4ZM92.0191 92.4C93.5924 92.4 94.7791 91.84 95.5791 90.72C96.3791 89.6 96.7791 87.6267 96.7791 84.8C96.7791 81.9733 96.3791 80 95.5791 78.88C94.7791 77.76 93.5924 77.2 92.0191 77.2C90.4457 77.2 89.2591 77.76 88.4591 78.88C87.6591 80 87.2591 81.9733 87.2591 84.8C87.2591 87.6267 87.6591 89.6 88.4591 90.72C89.2591 91.84 90.4457 92.4 92.0191 92.4ZM113.892 85.32V98H107.492V71.6H113.892L121.212 85.48V71.6H127.612V98H121.212L113.892 85.32ZM143.474 98.4C140.86 98.4 138.634 97.84 136.794 96.72C134.954 95.6 133.567 94.0133 132.634 91.96C131.7 89.9067 131.234 87.52 131.234 84.8C131.234 82.08 131.7 79.6933 132.634 77.64C133.567 75.5867 134.954 74 136.794 72.88C138.634 71.76 140.86 71.2 143.474 71.2C144.62 71.2 145.554 71.3333 146.274 71.6C146.994 71.8667 147.767 72.2667 148.594 72.8C149.314 73.2533 149.954 73.5867 150.514 73.8C151.1 74.0133 151.847 74.0933 152.754 74.04L150.914 80.64L150.434 80.68C149.767 80.68 149.167 80.5333 148.634 80.24C148.127 79.9467 147.5 79.4933 146.754 78.88C146.06 78.2933 145.487 77.8667 145.034 77.6C144.58 77.3333 144.06 77.2 143.474 77.2C141.98 77.2 140.834 77.76 140.034 78.88C139.234 80 138.834 81.9733 138.834 84.8C138.834 87.6267 139.234 89.6 140.034 90.72C140.834 91.84 141.98 92.4 143.474 92.4C145.927 92.4 147.34 91.2267 147.714 88.88H142.794V83.48H153.314C153.58 85.2933 153.714 86.7867 153.714 87.96C153.714 94.92 150.3 98.4 143.474 98.4Z" fill="white"/>
                            <path d="M34.88 118.2C33.3867 118.2 32.24 118.76 31.44 119.88C30.64 121 30.24 122.973 30.24 125.8C30.24 128.627 30.64 130.6 31.44 131.72C32.24 132.84 33.3867 133.4 34.88 133.4C35.84 133.4 36.8667 133.187 37.96 132.76C39.0533 132.307 40.04 131.507 40.92 130.36L44.84 134.56C43.8 136.107 42.44 137.307 40.76 138.16C39.08 138.987 37.12 139.4 34.88 139.4C32.2667 139.4 30.04 138.84 28.2 137.72C26.36 136.6 24.9733 135.013 24.04 132.96C23.1067 130.907 22.64 128.52 22.64 125.8C22.64 123.08 23.1067 120.693 24.04 118.64C24.9733 116.587 26.36 115 28.2 113.88C30.04 112.76 32.2667 112.2 34.88 112.2C36.0267 112.2 36.96 112.333 37.68 112.6C38.4 112.867 39.1733 113.267 40 113.8C40.72 114.253 41.36 114.587 41.92 114.8C42.5067 115.013 43.2533 115.093 44.16 115.04L42.32 121.64L41.84 121.68C41.1733 121.68 40.5733 121.533 40.04 121.24C39.5333 120.947 38.9067 120.493 38.16 119.88C37.4667 119.293 36.8933 118.867 36.44 118.6C35.9867 118.333 35.4667 118.2 34.88 118.2ZM57.7222 139.4C55.2422 139.4 53.1089 138.84 51.3222 137.72C49.5355 136.573 48.1755 134.987 47.2422 132.96C46.3355 130.907 45.8822 128.52 45.8822 125.8C45.8822 123.08 46.3355 120.707 47.2422 118.68C48.1755 116.627 49.5355 115.04 51.3222 113.92C53.1089 112.773 55.2422 112.2 57.7222 112.2C60.2022 112.2 62.3355 112.773 64.1222 113.92C65.9089 115.04 67.2555 116.627 68.1622 118.68C69.0955 120.707 69.5622 123.08 69.5622 125.8C69.5622 128.52 69.0955 130.907 68.1622 132.96C67.2555 134.987 65.9089 136.573 64.1222 137.72C62.3355 138.84 60.2022 139.4 57.7222 139.4ZM57.7222 133.4C59.2955 133.4 60.4822 132.84 61.2822 131.72C62.0822 130.6 62.4822 128.627 62.4822 125.8C62.4822 122.973 62.0822 121 61.2822 119.88C60.4822 118.76 59.2955 118.2 57.7222 118.2C56.1489 118.2 54.9622 118.76 54.1622 119.88C53.3622 121 52.9622 122.973 52.9622 125.8C52.9622 128.627 53.3622 130.6 54.1622 131.72C54.9622 132.84 56.1489 133.4 57.7222 133.4ZM83.6353 139.4C80.2753 139.4 77.6886 138.413 75.8753 136.44C74.0886 134.467 73.1953 131.72 73.1953 128.2V112.6H79.5953V128.6C79.5953 130.627 79.9286 132 80.5953 132.72C81.2886 133.44 82.302 133.8 83.6353 133.8C84.9686 133.8 85.9686 133.44 86.6353 132.72C87.3286 132 87.6753 130.627 87.6753 128.6V112.6H94.0753V128.2C94.0753 131.72 93.1686 134.467 91.3553 136.44C89.5686 138.413 86.9953 139.4 83.6353 139.4ZM98.0781 112.6H111.318C113.798 112.6 115.731 113.307 117.118 114.72C118.505 116.133 119.198 118.04 119.198 120.44C119.198 122.253 118.838 123.8 118.118 125.08C117.398 126.333 116.291 127.253 114.798 127.84C116.398 129.333 117.451 131.12 117.958 133.2C118.491 135.28 118.758 137.213 118.758 139H111.958C111.958 137.213 111.851 135.733 111.638 134.56C111.451 133.387 110.811 132.333 109.718 131.4C108.625 130.44 106.878 130.027 104.478 130.16V139H98.0781V112.6ZM108.518 124.48C109.931 124.48 110.931 124.24 111.518 123.76C112.105 123.28 112.398 122.44 112.398 121.24C112.398 120.227 112.091 119.507 111.478 119.08C110.891 118.627 109.905 118.4 108.518 118.4H104.478V124.48H108.518ZM132.784 139.4C130.171 139.4 127.878 139.013 125.904 138.24C123.931 137.467 122.291 136.387 120.984 135L124.544 129.92C126.224 132.48 128.611 133.76 131.704 133.76C132.638 133.76 133.438 133.56 134.104 133.16C134.798 132.733 135.144 132.24 135.144 131.68C135.144 131.067 134.784 130.573 134.064 130.2C133.371 129.827 132.251 129.4 130.704 128.92C128.838 128.333 127.291 127.76 126.064 127.2C124.838 126.613 123.771 125.76 122.864 124.64C121.958 123.493 121.504 122.027 121.504 120.24C121.504 118.64 121.944 117.24 122.824 116.04C123.731 114.813 124.971 113.867 126.544 113.2C128.144 112.533 129.931 112.2 131.904 112.2C133.318 112.2 134.438 112.347 135.264 112.64C136.118 112.933 137.011 113.347 137.944 113.88C138.691 114.307 139.344 114.627 139.904 114.84C140.491 115.027 141.211 115.093 142.064 115.04L140.224 121.64L139.784 121.68C139.144 121.68 138.544 121.533 137.984 121.24C137.451 120.92 136.851 120.453 136.184 119.84C135.384 119.173 134.678 118.667 134.064 118.32C133.451 117.973 132.731 117.8 131.904 117.8C130.011 117.8 129.064 118.52 129.064 119.96C129.064 120.547 129.424 121.04 130.144 121.44C130.891 121.84 132.038 122.32 133.584 122.88C135.451 123.547 136.998 124.187 138.224 124.8C139.451 125.413 140.504 126.267 141.384 127.36C142.291 128.427 142.744 129.773 142.744 131.4C142.744 132.947 142.318 134.333 141.464 135.56C140.638 136.76 139.464 137.707 137.944 138.4C136.451 139.067 134.731 139.4 132.784 139.4ZM163.734 112.6V118.4H152.134V124.12C152.774 123.347 153.441 122.733 154.134 122.28C154.828 121.8 155.468 121.56 156.054 121.56C156.588 121.56 157.028 121.68 157.374 121.92C157.748 122.133 158.188 122.48 158.694 122.96C159.201 123.493 159.668 123.893 160.094 124.16C160.548 124.4 161.108 124.48 161.774 124.4L159.934 129.64C159.828 129.667 159.668 129.68 159.454 129.68C158.761 129.68 158.161 129.507 157.654 129.16C157.148 128.813 156.588 128.333 155.974 127.72C155.654 127.373 155.388 127.12 155.174 126.96C154.988 126.8 154.801 126.72 154.614 126.72C153.708 126.72 152.881 127.64 152.134 129.48V133.2H163.734V139H145.734V112.6H163.734ZM177.745 139.4C175.132 139.4 172.839 139.013 170.865 138.24C168.892 137.467 167.252 136.387 165.945 135L169.505 129.92C171.185 132.48 173.572 133.76 176.665 133.76C177.599 133.76 178.399 133.56 179.065 133.16C179.759 132.733 180.105 132.24 180.105 131.68C180.105 131.067 179.745 130.573 179.025 130.2C178.332 129.827 177.212 129.4 175.665 128.92C173.799 128.333 172.252 127.76 171.025 127.2C169.799 126.613 168.732 125.76 167.825 124.64C166.919 123.493 166.465 122.027 166.465 120.24C166.465 118.64 166.905 117.24 167.785 116.04C168.692 114.813 169.932 113.867 171.505 113.2C173.105 112.533 174.892 112.2 176.865 112.2C178.279 112.2 179.399 112.347 180.225 112.64C181.079 112.933 181.972 113.347 182.905 113.88C183.652 114.307 184.305 114.627 184.865 114.84C185.452 115.027 186.172 115.093 187.025 115.04L185.185 121.64L184.745 121.68C184.105 121.68 183.505 121.533 182.945 121.24C182.412 120.92 181.812 120.453 181.145 119.84C180.345 119.173 179.639 118.667 179.025 118.32C178.412 117.973 177.692 117.8 176.865 117.8C174.972 117.8 174.025 118.52 174.025 119.96C174.025 120.547 174.385 121.04 175.105 121.44C175.852 121.84 176.999 122.32 178.545 122.88C180.412 123.547 181.959 124.187 183.185 124.8C184.412 125.413 185.465 126.267 186.345 127.36C187.252 128.427 187.705 129.773 187.705 131.4C187.705 132.947 187.279 134.333 186.425 135.56C185.599 136.76 184.425 137.707 182.905 138.4C181.412 139.067 179.692 139.4 177.745 139.4Z" fill="white"/>
                            <path d="M192 81.76C193.733 81.76 195.28 82.0933 196.64 82.76C198 83.4267 199.067 84.4 199.84 85.68C200.64 86.96 201.04 88.5467 201.04 90.44C201.04 92.4933 200.613 94.2667 199.76 95.76C198.907 97.2533 197.627 98.4 195.92 99.2C194.24 100 192.147 100.4 189.64 100.4C188.147 100.4 186.733 100.267 185.4 100C184.093 99.7333 182.947 99.3467 181.96 98.84V93.64C182.947 94.1467 184.133 94.5867 185.52 94.96C186.907 95.3067 188.213 95.48 189.44 95.48C190.64 95.48 191.64 95.32 192.44 95C193.267 94.68 193.893 94.1867 194.32 93.52C194.747 92.8533 194.96 92 194.96 90.96C194.96 89.5467 194.493 88.48 193.56 87.76C192.627 87.0133 191.187 86.64 189.24 86.64C188.493 86.64 187.72 86.72 186.92 86.88C186.12 87.0133 185.453 87.1467 184.92 87.28L182.52 86L183.6 71.44H199.08V76.56H188.88L188.36 82.16C188.813 82.08 189.293 82 189.8 81.92C190.333 81.8133 191.067 81.76 192 81.76Z" fill="#FF712A"/>
                            <path d="M224.291 85.72C224.291 88.0133 224.104 90.0667 223.731 91.88C223.384 93.6933 222.811 95.24 222.011 96.52C221.237 97.7733 220.211 98.7333 218.931 99.4C217.677 100.067 216.131 100.4 214.291 100.4C211.997 100.4 210.117 99.8133 208.651 98.64C207.184 97.4667 206.091 95.7867 205.371 93.6C204.677 91.4133 204.331 88.7867 204.331 85.72C204.331 82.6267 204.651 79.9867 205.291 77.8C205.931 75.6133 206.984 73.9333 208.451 72.76C209.917 71.5867 211.864 71 214.291 71C216.584 71 218.464 71.5867 219.931 72.76C221.397 73.9067 222.491 75.5867 223.211 77.8C223.931 79.9867 224.291 82.6267 224.291 85.72ZM210.331 85.72C210.331 87.88 210.451 89.6933 210.691 91.16C210.931 92.6 211.331 93.6933 211.891 94.44C212.477 95.16 213.277 95.52 214.291 95.52C215.304 95.52 216.091 95.16 216.651 94.44C217.237 93.72 217.651 92.64 217.891 91.2C218.157 89.7333 218.291 87.9067 218.291 85.72C218.291 83.5333 218.157 81.72 217.891 80.28C217.651 78.8133 217.237 77.72 216.651 77C216.091 76.2533 215.304 75.88 214.291 75.88C213.277 75.88 212.477 76.2533 211.891 77C211.331 77.72 210.931 78.8133 210.691 80.28C210.451 81.72 210.331 83.5333 210.331 85.72Z" fill="#FFD400"/>
                            <path d="M247.181 85.72C247.181 88.0133 246.995 90.0667 246.621 91.88C246.275 93.6933 245.701 95.24 244.901 96.52C244.128 97.7733 243.101 98.7333 241.821 99.4C240.568 100.067 239.021 100.4 237.181 100.4C234.888 100.4 233.008 99.8133 231.541 98.64C230.075 97.4667 228.981 95.7867 228.261 93.6C227.568 91.4133 227.221 88.7867 227.221 85.72C227.221 82.6267 227.541 79.9867 228.181 77.8C228.821 75.6133 229.875 73.9333 231.341 72.76C232.808 71.5867 234.755 71 237.181 71C239.475 71 241.355 71.5867 242.821 72.76C244.288 73.9067 245.381 75.5867 246.101 77.8C246.821 79.9867 247.181 82.6267 247.181 85.72ZM233.221 85.72C233.221 87.88 233.341 89.6933 233.581 91.16C233.821 92.6 234.221 93.6933 234.781 94.44C235.368 95.16 236.168 95.52 237.181 95.52C238.195 95.52 238.981 95.16 239.541 94.44C240.128 93.72 240.541 92.64 240.781 91.2C241.048 89.7333 241.181 87.9067 241.181 85.72C241.181 83.5333 241.048 81.72 240.781 80.28C240.541 78.8133 240.128 77.72 239.541 77C238.981 76.2533 238.195 75.88 237.181 75.88C236.168 75.88 235.368 76.2533 234.781 77C234.221 77.72 233.821 78.8133 233.581 80.28C233.341 81.72 233.221 83.5333 233.221 85.72Z" fill="#2500FF"/>
                            <g filter="url(#filter0_i_65_175)">
                            <path d="M38.5 351L53.6554 400.5H23.3446L38.5 351Z" fill="#77B7FE"/>
                            </g>
                            <g filter="url(#filter1_i_65_175)">
                            <path d="M208 328L250.435 400.75H165.565L208 328Z" fill="#77B7FE"/>
                            </g>
                            <g filter="url(#filter2_i_65_175)">
                            <path d="M336.5 347L359.45 401H313.55L336.5 347Z" fill="#77B7FE"/>
                            </g>
                            <g filter="url(#filter3_i_65_175)">
                            <path d="M279.5 382L287.727 400.75H271.273L279.5 382Z" fill="#77B7FE"/>
                            </g>
                            <g filter="url(#filter4_i_65_175)">
                            <ellipse cx="105" cy="370.5" rx="16" ry="15.5" fill="#77B7FE"/>
                            </g>
                            <g filter="url(#filter5_i_65_175)">
                            <ellipse cx="159" cy="350.5" rx="8" ry="7.5" fill="#77B7FE"/>
                            </g>
                            <g filter="url(#filter6_i_65_175)">
                            <circle cx="279.5" cy="362.5" r="11.5" fill="#77B7FE"/>
                            </g>
                            <defs>
                            <filter id="filter0_i_65_175" x="23.3446" y="351" width="30.3108" height="53.5" filterUnits="userSpaceOnUse" color-interpolation-filters="sRGB">
                            <feFlood flood-opacity="0" result="BackgroundImageFix"/>
                            <feBlend mode="normal" in="SourceGraphic" in2="BackgroundImageFix" result="shape"/>
                            <feColorMatrix in="SourceAlpha" type="matrix" values="0 0 0 0 0 0 0 0 0 0 0 0 0 0 0 0 0 0 127 0" result="hardAlpha"/>
                            <feOffset dy="4"/>
                            <feGaussianBlur stdDeviation="2"/>
                            <feComposite in2="hardAlpha" operator="arithmetic" k2="-1" k3="1"/>
                            <feColorMatrix type="matrix" values="0 0 0 0 0 0 0 0 0 0 0 0 0 0 0 0 0 0 0.25 0"/>
                            <feBlend mode="normal" in2="shape" result="effect1_innerShadow_65_175"/>
                            </filter>
                            <filter id="filter1_i_65_175" x="165.565" y="328" width="84.8705" height="76.75" filterUnits="userSpaceOnUse" color-interpolation-filters="sRGB">
                            <feFlood flood-opacity="0" result="BackgroundImageFix"/>
                            <feBlend mode="normal" in="SourceGraphic" in2="BackgroundImageFix" result="shape"/>
                            <feColorMatrix in="SourceAlpha" type="matrix" values="0 0 0 0 0 0 0 0 0 0 0 0 0 0 0 0 0 0 127 0" result="hardAlpha"/>
                            <feOffset dy="4"/>
                            <feGaussianBlur stdDeviation="2"/>
                            <feComposite in2="hardAlpha" operator="arithmetic" k2="-1" k3="1"/>
                            <feColorMatrix type="matrix" values="0 0 0 0 0 0 0 0 0 0 0 0 0 0 0 0 0 0 0.25 0"/>
                            <feBlend mode="normal" in2="shape" result="effect1_innerShadow_65_175"/>
                            </filter>
                            <filter id="filter2_i_65_175" x="313.55" y="347" width="45.8993" height="58" filterUnits="userSpaceOnUse" color-interpolation-filters="sRGB">
                            <feFlood flood-opacity="0" result="BackgroundImageFix"/>
                            <feBlend mode="normal" in="SourceGraphic" in2="BackgroundImageFix" result="shape"/>
                            <feColorMatrix in="SourceAlpha" type="matrix" values="0 0 0 0 0 0 0 0 0 0 0 0 0 0 0 0 0 0 127 0" result="hardAlpha"/>
                            <feOffset dy="4"/>
                            <feGaussianBlur stdDeviation="2"/>
                            <feComposite in2="hardAlpha" operator="arithmetic" k2="-1" k3="1"/>
                            <feColorMatrix type="matrix" values="0 0 0 0 0 0 0 0 0 0 0 0 0 0 0 0 0 0 0.25 0"/>
                            <feBlend mode="normal" in2="shape" result="effect1_innerShadow_65_175"/>
                            </filter>
                            <filter id="filter3_i_65_175" x="271.273" y="382" width="16.4545" height="22.75" filterUnits="userSpaceOnUse" color-interpolation-filters="sRGB">
                            <feFlood flood-opacity="0" result="BackgroundImageFix"/>
                            <feBlend mode="normal" in="SourceGraphic" in2="BackgroundImageFix" result="shape"/>
                            <feColorMatrix in="SourceAlpha" type="matrix" values="0 0 0 0 0 0 0 0 0 0 0 0 0 0 0 0 0 0 127 0" result="hardAlpha"/>
                            <feOffset dy="4"/>
                            <feGaussianBlur stdDeviation="2"/>
                            <feComposite in2="hardAlpha" operator="arithmetic" k2="-1" k3="1"/>
                            <feColorMatrix type="matrix" values="0 0 0 0 0 0 0 0 0 0 0 0 0 0 0 0 0 0 0.25 0"/>
                            <feBlend mode="normal" in2="shape" result="effect1_innerShadow_65_175"/>
                            </filter>
                            <filter id="filter4_i_65_175" x="89" y="355" width="32" height="35" filterUnits="userSpaceOnUse" color-interpolation-filters="sRGB">
                            <feFlood flood-opacity="0" result="BackgroundImageFix"/>
                            <feBlend mode="normal" in="SourceGraphic" in2="BackgroundImageFix" result="shape"/>
                            <feColorMatrix in="SourceAlpha" type="matrix" values="0 0 0 0 0 0 0 0 0 0 0 0 0 0 0 0 0 0 127 0" result="hardAlpha"/>
                            <feOffset dy="4"/>
                            <feGaussianBlur stdDeviation="2"/>
                            <feComposite in2="hardAlpha" operator="arithmetic" k2="-1" k3="1"/>
                            <feColorMatrix type="matrix" values="0 0 0 0 0 0 0 0 0 0 0 0 0 0 0 0 0 0 0.25 0"/>
                            <feBlend mode="normal" in2="shape" result="effect1_innerShadow_65_175"/>
                            </filter>
                            <filter id="filter5_i_65_175" x="151" y="343" width="16" height="19" filterUnits="userSpaceOnUse" color-interpolation-filters="sRGB">
                            <feFlood flood-opacity="0" result="BackgroundImageFix"/>
                            <feBlend mode="normal" in="SourceGraphic" in2="BackgroundImageFix" result="shape"/>
                            <feColorMatrix in="SourceAlpha" type="matrix" values="0 0 0 0 0 0 0 0 0 0 0 0 0 0 0 0 0 0 127 0" result="hardAlpha"/>
                            <feOffset dy="4"/>
                            <feGaussianBlur stdDeviation="2"/>
                            <feComposite in2="hardAlpha" operator="arithmetic" k2="-1" k3="1"/>
                            <feColorMatrix type="matrix" values="0 0 0 0 0 0 0 0 0 0 0 0 0 0 0 0 0 0 0.25 0"/>
                            <feBlend mode="normal" in2="shape" result="effect1_innerShadow_65_175"/>
                            </filter>
                            <filter id="filter6_i_65_175" x="268" y="351" width="23" height="27" filterUnits="userSpaceOnUse" color-interpolation-filters="sRGB">
                            <feFlood flood-opacity="0" result="BackgroundImageFix"/>
                            <feBlend mode="normal" in="SourceGraphic" in2="BackgroundImageFix" result="shape"/>
                            <feColorMatrix in="SourceAlpha" type="matrix" values="0 0 0 0 0 0 0 0 0 0 0 0 0 0 0 0 0 0 127 0" result="hardAlpha"/>
                            <feOffset dy="4"/>
                            <feGaussianBlur stdDeviation="2"/>
                            <feComposite in2="hardAlpha" operator="arithmetic" k2="-1" k3="1"/>
                            <feColorMatrix type="matrix" values="0 0 0 0 0 0 0 0 0 0 0 0 0 0 0 0 0 0 0.25 0"/>
                            <feBlend mode="normal" in2="shape" result="effect1_innerShadow_65_175"/>
                            </filter>
                            </defs>
                            </svg>