<svg width="56" height="56" viewBox="0 0 56 56" fill="none" xmlns="http://www.w3.org/2000/svg">
<path d="M53.6666 27.9999C53.6666 42.1752 42.1752 53.6666 28 53.6666C13.8247 53.6666 2.33331 42.1752 2.33331 27.9999C2.33331 13.8246 13.8247 2.33325 28 2.33325C42.1752 2.33325 53.6666 13.8246 53.6666 27.9999ZM7.01592 27.9999C7.01592 39.5891 16.4108 48.9841 28 48.9841C39.5892 48.9841 48.9841 39.5891 48.9841 27.9999C48.9841 16.4107 39.5892 7.01585 28 7.01585C16.4108 7.01585 7.01592 16.4107 7.01592 27.9999Z" fill="white"/>
<path d="M28 11.6667C26.7113 11.6667 25.6667 12.7114 25.6667 14.0001V29.089C25.6667 29.089 25.6667 29.6973 25.9623 30.1549C26.1602 30.5429 26.4687 30.8801 26.874 31.1141L37.6535 37.3378C38.7695 37.9821 40.1966 37.5996 40.8408 36.4836C41.4851 35.3676 41.1029 33.9405 39.9868 33.2963L30.3334 27.7229V14.0001C30.3334 12.7114 29.2887 11.6667 28 11.6667Z" fill="white"/>
</svg>
