<svg width="29" height="28" viewBox="0 0 29 28" fill="none" xmlns="http://www.w3.org/2000/svg">
<g clip-path="url(#clip0_1_1760)">
<path d="M12.7721 16.6962L17.3549 14.0056L12.7721 11.3149V16.6962Z" fill="black"/>
<path d="M14.637 0C6.90415 0 0.636963 6.26719 0.636963 14C0.636963 21.7328 6.90415 28 14.637 28C22.3698 28 28.637 21.7328 28.637 14C28.637 6.26719 22.3698 0 14.637 0ZM21.637 16.5047C21.637 18.9164 19.2252 18.9164 19.2252 18.9164H10.0487C7.63696 18.9164 7.63696 16.5047 7.63696 16.5047V11.5008C7.63696 9.08906 10.0487 9.08906 10.0487 9.08906H19.2252C21.637 9.08906 21.637 11.5008 21.637 11.5008V16.5047Z" fill="black"/>
</g>
<defs>
<clipPath id="clip0_1_1760">
<rect width="28" height="28" fill="white" transform="translate(0.636963)"/>
</clipPath>
</defs>
</svg>

