<svg width="85" height="100" viewBox="0 0 85 100" fill="none" xmlns="http://www.w3.org/2000/svg">
<path d="M52.1603 100V94.3355C52.1603 93.1243 52.6274 91.9627 53.4588 91.1063C54.2903 90.2498 55.4179 89.7687 56.5937 89.7687H68.8342C69.465 89.7512 70.0863 89.6056 70.6623 89.3401C71.2384 89.0747 71.7578 88.6947 72.191 88.222C72.6241 87.7492 72.9623 87.193 73.1862 86.5853C73.4101 85.9775 73.5153 85.3302 73.4957 84.6805V84.7741C73.496 84.6527 73.4962 78.2586 73.4963 78.0282C73.5284 77.1549 73.8528 76.32 74.4145 75.6651C75.343 74.5627 75.8503 73.1499 75.8417 71.6905L75.8282 70.3139C75.8264 69.8887 75.9502 69.4729 76.1832 69.1218C76.4161 68.7707 76.7472 68.5009 77.1325 68.3482H79.2707C79.6669 68.3582 80.0605 68.2793 80.4241 68.1169C80.7878 67.9544 81.1127 67.7124 81.3764 67.4076C81.7005 67.0156 81.9087 66.536 81.9761 66.0258C82.0436 65.5156 81.9675 64.9962 81.7569 64.5292C79.4266 59.4934 77.3941 54.3171 75.6706 49.0285C75.3651 48.0231 75.2183 46.9737 75.2358 45.9204L75.2335 35.612C75.2329 32.8465 74.8605 30.0944 74.1268 27.4341L74.1142 27.3885C72.9485 23.0107 70.795 18.9786 67.8292 15.621C67.1896 14.9106 66.5179 14.2202 65.8142 13.5499C65.3728 13.1122 64.9232 12.6812 64.4568 12.2646C57.7618 6.27016 49.1843 2.97872 40.3136 3.00013C31.1475 2.97645 22.2617 6.25359 15.1931 12.2646C9.10875 17.6733 5.00607 25.0651 3.56785 33.2099C2.12963 41.3547 3.44261 49.7612 7.28827 57.0304C11.7651 65.9592 15.2707 80.6442 16.163 95.8723V100" stroke="white" stroke-width="5" stroke-miterlimit="10"/>
<path d="M47 27H53" stroke="#0274F1" stroke-width="5" stroke-linecap="round" stroke-linejoin="round"/>
<path d="M47 49H53" stroke="#0274F1" stroke-width="5" stroke-linecap="round" stroke-linejoin="round"/>
<path d="M51 27V49" stroke="#0274F1" stroke-width="5" stroke-linecap="round" stroke-linejoin="round"/>
<path d="M39 49L31.1322 27H29.8274L22 49" stroke="#0274F1" stroke-width="5" stroke-linecap="round" stroke-linejoin="round"/>
<path d="M25 42H36" stroke="#0274F1" stroke-width="5" stroke-linecap="round" stroke-linejoin="round"/>
</svg>
