<svg width="85" height="85" viewBox="0 0 85 85" fill="none" xmlns="http://www.w3.org/2000/svg">
<g clip-path="url(#clip0_1_2193)">
<path d="M68.6538 0H16.3462C7.33291 0 0 7.33291 0 16.3462V68.6539C0 77.6671 7.33291 85 16.3462 85H68.6539C77.6671 85 85 77.6671 85 68.6538V16.3462C85 7.33291 77.6671 0 68.6538 0ZM39.2308 78.4615H16.3462C10.9383 78.4615 6.53853 74.0617 6.53853 68.6538V45.7692H39.2308V78.4615ZM39.2308 39.2308H6.53853V16.3462C6.53853 10.9383 10.9383 6.53853 16.3462 6.53853H39.2308V39.2308ZM78.4615 68.6538C78.4615 74.0617 74.0617 78.4615 68.6538 78.4615H45.7692V45.7692H78.4615V68.6538ZM78.4615 39.2308H45.7692V6.53853H68.6538C74.0617 6.53853 78.4615 10.9383 78.4615 16.3462V39.2308Z" fill="white"/>
<path d="M70.8334 52.3077H53.3975V58.8462H70.8334V52.3077Z" fill="#0274F1"/>
<path d="M70.8334 19.6154H53.3975V26.1539H70.8334V19.6154Z" fill="#0274F1"/>
<path d="M70.8334 65.3846H53.3975V71.9231H70.8334V65.3846Z" fill="#0274F1"/>
<path d="M31.7347 57.8885L27.1115 53.2653L22.8846 57.492L18.6576 53.2653L14.0346 57.8885L18.2612 62.1154L14.0346 66.3423L18.6576 70.9653L22.8846 66.7388L27.1115 70.9653L31.7347 66.3423L27.5079 62.1154L31.7347 57.8885Z" fill="#0274F1"/>
<path d="M26.1538 20.1442V14.1666H19.6154V20.1442H13.6379V26.6825H19.6154V32.6601H26.1538V26.6825H32.1315V20.1442H26.1538Z" fill="#0274F1"/>
</g>
<defs>
<clipPath id="clip0_1_2193">
<rect width="85" height="85" fill="white"/>
</clipPath>
</defs>
</svg>
