<svg width="71" height="95" viewBox="0 0 71 95" fill="none" xmlns="http://www.w3.org/2000/svg">
<path d="M35.4997 4H19.7499C11.0515 4 4 10.4918 4 18.4999C4 26.5079 11.0514 32.9998 19.7499 32.9998H35.4997V4Z" stroke="white" stroke-width="7"/>
<path d="M35.4997 32.9991H19.7499C11.0515 32.9991 4 39.491 4 47.4989C4 55.5072 11.0514 61.999 19.7499 61.999H35.4997V32.9991Z" stroke="#0274F1" stroke-width="7"/>
<path d="M66.9999 47.4989C66.9999 55.5072 59.9484 61.999 51.2497 61.999C42.5515 61.999 35.5 55.5072 35.5 47.4989C35.5 39.491 42.5515 32.9991 51.2497 32.9991C59.9484 32.9991 66.9999 39.491 66.9999 47.4989Z" stroke="white" stroke-width="7"/>
<path d="M19.7499 62.0001H35.4997V76.4998C35.4997 84.5081 28.4481 91 19.7499 91C11.0515 91 4 84.5081 4 76.4998C4 68.492 11.0514 62.0001 19.7499 62.0001Z" stroke="white" stroke-width="7"/>
<path d="M35.5 4H51.2497C59.9484 4 66.9999 10.4918 66.9999 18.4999C66.9999 26.5079 59.9484 32.9998 51.2497 32.9998H35.5V4Z" stroke="#0274F1" stroke-width="7"/>
</svg>
