<svg width="109" height="107" viewBox="0 0 109 107" fill="none" xmlns="http://www.w3.org/2000/svg">
<g clip-path="url(#clip0_1_2185)">
<path d="M64.7767 60.6387L71.0717 41.625H85.6158L106.763 105.5H95.5967L91.5091 93.1536L91.1685 92.125H90.0851H66.6022H65.5187L65.1782 93.1536L61.0906 105.5H49.9243L60.4322 73.7611L61.0231 71.9763L59.1517 71.7965C50.2864 70.9448 42.0253 68.0797 34.8471 63.6737L34.0625 63.1921L33.2778 63.6737C24.6178 68.9888 14.3808 72.0625 3.40625 72.0625H1.5V61.6875H3.40625C10.5556 61.6875 17.3269 60.0768 23.3605 57.2023L25.2439 56.305L23.7937 54.8054C20.0226 50.9058 16.8252 46.4688 14.333 41.625H26.5948C28.4577 44.3709 30.6194 46.9033 33.0339 49.1779L34.0624 50.1468L35.091 49.1779C41.3412 43.2899 45.8985 35.6721 47.961 27.1009L48.4064 25.25H46.5026H1.5V14.875H27.25H28.75V13.375V1.5H39.375V13.375V14.875H40.875H66.625V25.25H60.4137H59.1613L58.9378 26.4823C56.9672 37.347 51.7638 47.1194 44.3311 54.8054L42.8809 56.305L44.7642 57.2023C50.3994 59.887 56.6783 61.4693 63.3081 61.6666L64.4254 61.6998L64.7767 60.6387ZM85.657 81.75H87.7336L87.0809 79.7786L79.7677 57.6889L78.3437 53.3878L76.9198 57.6889L69.6065 79.7786L68.9538 81.75H71.0305H85.657Z" fill="white" stroke="#0274F1" stroke-width="3"/>
</g>
<defs>
<clipPath id="clip0_1_2185">
<rect width="109" height="107" fill="white"/>
</clipPath>
</defs>
</svg>
