<svg width="104" height="97" viewBox="0 0 104 97" fill="none" xmlns="http://www.w3.org/2000/svg">
<path d="M13 4.03125H91C95.8993 4.03125 99.75 7.71943 99.75 12.125V84.875C99.75 89.2806 95.8993 92.9688 91 92.9688H13C8.10074 92.9688 4.25 89.2806 4.25 84.875V12.125C4.25 7.71943 8.10074 4.03125 13 4.03125Z" fill="#232323" stroke="white" stroke-width="2"/>
<path d="M100.75 21.2188V12.125C100.75 9.71319 99.7228 7.40016 97.8943 5.69475C96.0658 3.98934 93.5859 3.03125 91 3.03125H13C10.4141 3.03125 7.93419 3.98934 6.10571 5.69475C4.27723 7.40016 3.25 9.71319 3.25 12.125V21.2188H100.75Z" fill="#0274F1"/>
<path d="M84.5 15.1562H82.875C82.013 15.1562 81.1864 14.8369 80.5769 14.2684C79.9674 13.6999 79.625 12.9289 79.625 12.125C79.625 11.3211 79.9674 10.5501 80.5769 9.98158C81.1864 9.41311 82.013 9.09375 82.875 9.09375H84.5C85.362 9.09375 86.1886 9.41311 86.7981 9.98158C87.4076 10.5501 87.75 11.3211 87.75 12.125C87.75 12.9289 87.4076 13.6999 86.7981 14.2684C86.1886 14.8369 85.362 15.1562 84.5 15.1562Z" fill="#232323"/>
<path d="M71.5 15.1562H69.875C69.013 15.1562 68.1864 14.8369 67.5769 14.2684C66.9674 13.6999 66.625 12.9289 66.625 12.125C66.625 11.3211 66.9674 10.5501 67.5769 9.98158C68.1864 9.41311 69.013 9.09375 69.875 9.09375H71.5C72.362 9.09375 73.1886 9.41311 73.7981 9.98158C74.4076 10.5501 74.75 11.3211 74.75 12.125C74.75 12.9289 74.4076 13.6999 73.7981 14.2684C73.1886 14.8369 72.362 15.1562 71.5 15.1562Z" fill="#232323"/>
<path d="M39.825 66C39.5404 66.0014 39.2583 65.9535 38.9948 65.859C38.7313 65.7645 38.4917 65.6252 38.2896 65.4492L29.6397 57.8523C29.437 57.6758 29.2761 57.4657 29.1663 57.2343C29.0565 57.0028 29 56.7546 29 56.5039C29 56.2531 29.0565 56.0049 29.1663 55.7735C29.2761 55.542 29.437 55.332 29.6397 55.1554L38.2896 47.5585C38.6968 47.2009 39.2491 47 39.825 47C40.4008 47 40.9531 47.2009 41.3603 47.5585C41.7675 47.9162 41.9963 48.4012 41.9963 48.907C41.9963 49.4128 41.7675 49.8978 41.3603 50.2554L34.2241 56.5039L41.3603 62.7523C41.563 62.9289 41.7239 63.1389 41.8337 63.3704C41.9435 63.6018 42 63.85 42 64.1007C42 64.3515 41.9435 64.5997 41.8337 64.8311C41.7239 65.0626 41.563 65.2726 41.3603 65.4492C41.1583 65.6252 40.9186 65.7645 40.6552 65.859C40.3917 65.9535 40.1096 66.0014 39.825 66Z" fill="#0274F1"/>
<path d="M64.175 66C63.8904 66.0014 63.6083 65.9535 63.3448 65.859C63.0814 65.7645 62.8417 65.6252 62.6397 65.4492C62.437 65.2726 62.2761 65.0626 62.1663 64.8311C62.0565 64.5997 62 64.3515 62 64.1007C62 63.85 62.0565 63.6018 62.1663 63.3704C62.2761 63.1389 62.437 62.9289 62.6397 62.7523L69.7759 56.5039L62.6397 50.2554C62.438 50.0784 62.2781 49.8681 62.169 49.6368C62.0599 49.4054 62.0037 49.1574 62.0037 48.907C62.0037 48.4012 62.2325 47.9162 62.6397 47.5585C63.0469 47.2009 63.5992 47 64.175 47C64.4602 47 64.7425 47.0493 65.006 47.1452C65.2694 47.241 65.5088 47.3815 65.7104 47.5585L74.3603 55.1554C74.563 55.332 74.7239 55.542 74.8337 55.7735C74.9435 56.0049 75 56.2531 75 56.5039C75 56.7546 74.9435 57.0028 74.8337 57.2343C74.7239 57.4657 74.563 57.6758 74.3603 57.8523L65.7104 65.4492C65.5083 65.6252 65.2687 65.7645 65.0052 65.859C64.7417 65.9535 64.4596 66.0014 64.175 66Z" fill="#0274F1"/>
<path d="M48.0044 70C47.7878 69.9948 47.5728 69.9623 47.3649 69.9036C47.1153 69.8231 46.8846 69.6958 46.686 69.529C46.4875 69.3622 46.3251 69.1592 46.2081 68.9316C46.0912 68.7041 46.0219 68.4564 46.0044 68.203C45.9869 67.9495 46.0215 67.6953 46.1061 67.4547L54.0987 44.3159C54.1827 44.0754 54.3149 43.8531 54.4879 43.6619C54.6609 43.4706 54.8712 43.3142 55.1068 43.2013C55.3425 43.0885 55.5988 43.0216 55.8613 43.0044C56.1237 42.9872 56.3871 43.0201 56.6364 43.1011C56.8856 43.1822 57.1159 43.3098 57.3141 43.4767C57.5123 43.6436 57.6745 43.8466 57.7913 44.074C57.9082 44.3014 57.9776 44.5488 57.9954 44.802C58.0132 45.0553 57.9792 45.3094 57.8952 45.55L49.9026 68.6888C49.7685 69.0718 49.5132 69.4044 49.1725 69.6397C48.8319 69.875 48.4233 70.001 48.0044 70Z" fill="#0274F1"/>
</svg>
