<svg width="118" height="114" viewBox="0 0 118 114" fill="none" xmlns="http://www.w3.org/2000/svg">
<path d="M58.3725 61.7367C62.9527 61.7367 66.6793 58.137 66.6793 53.7121C66.6793 49.2872 62.9527 45.6875 58.3725 45.6875C53.7924 45.6875 50.0667 49.2872 50.0667 53.7121C50.0666 58.137 53.7924 61.7367 58.3725 61.7367ZM58.3725 49.5857C60.7281 49.5857 62.6443 51.4366 62.6443 53.7121C62.6443 55.9876 60.7281 57.8389 58.3725 57.8389C56.0173 57.8389 54.1013 55.9876 54.1013 53.7121C54.1013 51.4366 56.0173 49.5857 58.3725 49.5857Z" fill="white"/>
<path d="M91.3535 53.7898C98.3748 48.0399 103.815 42.1813 106.303 37.013C105.678 37.1354 105.03 37.2004 104.367 37.2004C103.486 37.2004 102.633 37.0848 101.82 36.872C100.459 39.1602 98.4014 41.749 95.7091 44.5051C93.5228 46.7427 90.9999 49.0176 88.1993 51.2889C84.7204 48.624 80.8985 45.9844 76.8186 43.4331C76.5319 39.1296 76.0683 34.8884 75.4313 30.8443C82.8104 28.3721 89.4701 26.9621 94.6673 26.8587C94.8103 25.4455 95.2783 24.124 95.9977 22.9628C95.7597 22.9575 95.5238 22.9506 95.2789 22.9506C89.7519 22.9506 82.6293 24.3826 74.7545 26.9665C71.8426 11.8077 66.3409 0.280823 58.506 0.280823C50.6706 0.280823 45.1685 11.8076 42.2575 26.9665C34.3821 24.3826 27.2598 22.9506 21.7328 22.9506C21.7082 22.9506 21.6853 22.9517 21.6607 22.9517C22.387 24.1207 22.8581 25.4532 22.9997 26.8775C28.0958 27.0806 34.5079 28.4749 41.5801 30.8443C40.9431 34.8884 40.4793 39.1297 40.1925 43.4336C36.1129 45.9849 32.2913 48.624 28.8124 51.2889C26.0117 49.0178 23.4888 46.7426 21.3026 44.505C18.6626 41.8032 16.6323 39.261 15.2713 37.0061C14.6337 37.1332 13.9738 37.2003 13.2978 37.2003C12.3705 37.2003 11.474 37.0715 10.6239 36.8369C13.0727 42.048 18.5568 47.9749 25.6582 53.7898C22.9568 56.009 20.5091 58.2322 18.368 60.4242C10.3473 68.6342 7.52777 75.4133 10.2134 80.029C11.9992 83.0978 15.8745 84.6539 21.7319 84.6539C27.2591 84.6539 34.3814 83.2222 42.2571 80.6377C43.8661 89.0158 46.267 96.2819 49.4154 101.108C50.0075 99.7794 50.9081 98.6088 52.0281 97.678C50.8248 95.5374 49.6834 92.8486 48.6643 89.6896C47.6499 86.5475 46.787 83.0591 46.0839 79.3113C50.1062 77.8473 54.2805 76.1103 58.506 74.1331C62.7312 76.1103 66.9052 77.8473 70.9275 79.311C70.2242 83.0589 69.3612 86.5475 68.3471 89.6896C67.3042 92.9223 66.1332 95.6651 64.8983 97.83C66.0027 98.7931 66.8769 99.9977 67.4347 101.356C70.663 96.5323 73.1176 89.159 74.7545 80.6375C82.6297 83.2222 89.7525 84.6539 95.2801 84.6539C101.137 84.6539 105.013 83.0976 106.798 80.0286C109.484 75.4133 106.664 68.6342 98.6437 60.4242C96.5023 58.2322 94.0546 56.0089 91.3535 53.7898ZM84.9842 53.802C82.5092 55.6698 79.8588 57.5241 77.0649 59.3431C77.1305 57.4945 77.1645 55.6447 77.1645 53.8026C77.1645 51.9598 77.1305 50.1094 77.0649 48.2609C79.8588 50.0795 82.5092 51.9342 84.9842 53.802ZM43.8813 53.8026C43.8813 51.0451 43.9529 48.3233 44.0902 45.6544C46.4306 44.2312 48.852 42.8375 51.3395 41.4865C53.7308 40.1877 56.1256 38.9626 58.5061 37.8122C60.8863 38.9626 63.281 40.1877 65.6721 41.4865C68.1601 42.8373 70.5809 44.2312 72.9213 45.6541C73.0589 48.3228 73.1299 51.0449 73.1299 53.8026C73.1299 56.5595 73.0589 59.2812 72.9213 61.9497C70.5806 63.3729 68.1595 64.7668 65.6715 66.1181C63.2804 67.4164 60.8859 68.6418 58.5061 69.7919C56.1259 68.6418 53.7308 67.4164 51.3401 66.1179C48.852 64.7664 46.4309 63.3726 44.0902 61.9494C43.9529 59.2811 43.8813 56.5594 43.8813 53.8026ZM72.5992 40.8812C70.9802 39.9334 69.3294 39.001 67.6488 38.0884C66.1242 37.2605 64.5967 36.4618 63.071 35.6911C65.965 34.4013 68.8159 33.2346 71.5894 32.2033C72.0108 34.9881 72.3483 37.8911 72.5992 40.8812ZM48.6643 17.915C51.4401 9.31387 55.1187 4.17874 58.506 4.17874C61.8928 4.17874 65.5716 9.31387 68.3471 17.915C69.3612 21.0574 70.2242 24.5457 70.9273 28.293C66.9052 29.7569 62.7309 31.4937 58.506 33.4713C54.2805 31.4937 50.1066 29.7569 46.0839 28.293C46.7876 24.5457 47.65 21.0573 48.6643 17.915ZM45.4217 32.203C48.1952 33.2344 51.0465 34.4014 53.9405 35.6911C52.4147 36.4619 50.8875 37.2605 49.3628 38.0885C47.6823 39.001 46.031 39.9334 44.412 40.8813C44.6631 37.8911 45.0006 34.9881 45.4217 32.203ZM39.9468 48.2612C39.8809 50.1097 39.8467 51.9598 39.8467 53.8026C39.8467 55.6447 39.881 57.4946 39.9465 59.3428C37.1527 57.5241 34.5028 55.6696 32.0277 53.8023C34.5028 51.9344 37.1527 50.0798 39.9468 48.2612ZM21.732 80.756C17.5614 80.756 14.7198 79.8192 13.7301 78.1188C12.0708 75.2666 14.9012 69.652 21.3023 63.0995C23.4928 60.8564 26.0226 58.5765 28.8308 56.2999C32.3574 58.997 36.1927 61.6426 40.1917 64.153C40.4783 68.4626 40.942 72.7101 41.5802 76.7603C33.9098 79.3298 27.0124 80.756 21.732 80.756ZM45.4217 75.4009C45.0004 72.6141 44.6625 69.7089 44.4114 66.7164C46.0473 67.6772 47.7003 68.6126 49.3631 69.5155C50.8874 70.3434 52.4149 71.1421 53.941 71.9128C51.0468 73.2026 48.1952 74.3699 45.4217 75.4009ZM63.071 71.9128C64.5968 71.1421 66.1243 70.3435 67.6483 69.516C69.3108 68.6129 70.9639 67.6775 72.6001 66.7166C72.3489 69.7089 72.0114 72.6141 71.5895 75.4006C68.8159 74.3699 65.965 73.2026 63.071 71.9128ZM103.281 78.1188C102.292 79.8192 99.4501 80.756 95.2801 80.756C89.9991 80.756 83.1019 79.3298 75.4314 76.7603C76.0693 72.7101 76.5336 68.4628 76.8199 64.1529C80.8188 61.6428 84.6544 58.9973 88.1814 56.2999C90.9889 58.5764 93.5187 60.8563 95.7098 63.0994C102.11 69.652 104.941 75.2666 103.281 78.1188Z" fill="white"/>
<path d="M21.2193 27.2175C21.2193 22.7749 17.4781 19.1608 12.8797 19.1608C8.28146 19.1608 4.54053 22.7748 4.54053 27.2175C4.54053 31.6598 8.28146 35.2742 12.8797 35.2742C17.4781 35.2742 21.2193 31.6598 21.2193 27.2175ZM8.64129 27.2175C8.64129 24.9597 10.5426 23.1225 12.8797 23.1225C15.2169 23.1225 17.1185 24.9597 17.1185 27.2175C17.1185 29.4752 15.2169 31.3124 12.8797 31.3124C10.5426 31.3124 8.64129 29.4752 8.64129 27.2175Z" fill="white"/>
<path d="M105.12 19.1608C100.521 19.1608 96.7805 22.7748 96.7805 27.2175C96.7805 31.6598 100.521 35.2742 105.12 35.2742C109.718 35.2742 113.459 31.6598 113.459 27.2175C113.459 22.7749 109.718 19.1608 105.12 19.1608ZM105.12 31.3124C102.783 31.3124 100.881 29.4752 100.881 27.2175C100.881 24.9597 102.783 23.1225 105.12 23.1225C107.457 23.1225 109.358 24.9597 109.358 27.2175C109.359 29.4752 107.457 31.3124 105.12 31.3124Z" fill="white"/>
<path d="M58.54 97.6058C53.9418 97.6058 50.2009 101.22 50.2009 105.663C50.2009 110.105 53.9418 113.719 58.54 113.719C63.1387 113.719 66.88 110.105 66.88 105.663C66.88 101.22 63.1388 97.6058 58.54 97.6058ZM58.54 109.757C56.203 109.757 54.3017 107.921 54.3017 105.663C54.3017 103.405 56.203 101.568 58.54 101.568C60.8776 101.568 62.7792 103.405 62.7792 105.663C62.7792 107.921 60.8776 109.757 58.54 109.757Z" fill="white"/>
<circle cx="105" cy="27" r="5" fill="#0274F1"/>
<circle cx="58.5" cy="53.5" r="5.5" fill="#0274F1"/>
<circle cx="58.5" cy="105.5" r="5.5" fill="#0274F1"/>
<circle cx="13" cy="27" r="5" fill="#0274F1"/>
</svg>
