<svg width="116" height="114" viewBox="0 0 116 114" fill="none" xmlns="http://www.w3.org/2000/svg">
<g clip-path="url(#clip0_1_2216)">
<path d="M102.225 27.9775C95.1485 17.5552 84.4966 9.97893 72.211 6.62987C59.9255 3.28082 46.8244 4.38196 35.2959 9.73259C23.7674 15.0832 14.5793 24.327 9.40632 35.7789C4.23337 47.2309 3.42011 60.1283 7.11477 72.1203C10.8094 84.1123 18.766 94.4002 29.5341 101.109C40.3021 107.817 53.1646 110.5 65.777 108.667C78.3893 106.834 89.9115 100.608 98.2433 91.1242C106.575 81.6402 111.162 69.5296 111.167 57C111.171 46.6699 108.059 36.5703 102.225 27.9775ZM94.1534 80.75C88.3528 89.2697 79.6302 95.4573 69.5755 98.1851C59.5208 100.913 48.8035 99.9992 39.377 95.6106C29.9504 91.222 22.4424 83.6507 18.2212 74.2767C14 64.9027 13.3469 54.3501 16.3807 44.5423C19.4146 34.7346 25.9335 26.3247 34.7492 20.8456C43.565 15.3664 54.0906 13.1828 64.4076 14.6928C74.7246 16.2027 84.146 21.3057 90.9546 29.0716C97.7633 36.8374 101.506 46.7491 101.5 57C101.495 65.4565 98.9386 73.7217 94.1534 80.75ZM72.5001 52.25V42.75C72.5001 38.9707 70.9724 35.3462 68.2531 32.6738C65.5338 30.0014 61.8457 28.5 58.0001 28.5C54.1544 28.5 50.4663 30.0014 47.747 32.6738C45.0277 35.3462 43.5001 38.9707 43.5001 42.75V52.25C42.2182 52.25 40.9888 52.7505 40.0824 53.6413C39.176 54.5321 38.6667 55.7402 38.6667 57V76C38.6667 77.2598 39.176 78.468 40.0824 79.3588C40.9888 80.2496 42.2182 80.75 43.5001 80.75H72.5001C73.7819 80.75 75.0113 80.2496 75.9177 79.3588C76.8242 78.468 77.3334 77.2598 77.3334 76V57C77.3334 55.7402 76.8242 54.5321 75.9177 53.6413C75.0113 52.7505 73.7819 52.25 72.5001 52.25ZM65.2501 52.25H50.7501V42.75C50.7501 40.8604 51.5139 39.0481 52.8735 37.7119C54.2332 36.3757 56.0772 35.625 58.0001 35.625C59.9229 35.625 61.7669 36.3757 63.1266 37.7119C64.4862 39.0481 65.2501 40.8604 65.2501 42.75V52.25Z" fill="white"/>
<path d="M93.235 71.535C93.5946 71.1752 93.8889 70.7575 94.105 70.3C94.3194 69.8372 94.4346 69.336 94.4433 68.8275C94.4281 68.3351 94.313 67.8507 94.105 67.4025C93.8889 66.945 93.5946 66.5274 93.235 66.1675C92.84 65.839 92.3788 65.5962 91.8817 65.455C91.387 65.359 90.878 65.359 90.3833 65.455C89.7492 65.461 89.1295 65.6421 88.595 65.9775C88.0691 66.31 87.6369 66.7675 87.3383 67.3075H77.3333V70.6325H87.2417C87.5303 71.2072 87.984 71.6861 88.5467 72.01C89.0983 72.347 89.7338 72.5278 90.3833 72.5325C90.878 72.6285 91.387 72.6285 91.8817 72.5325C92.4056 72.308 92.869 71.9665 93.235 71.535ZM91.8333 68.8275C91.8401 69.004 91.8098 69.1799 91.7441 69.3443C91.6785 69.5086 91.5791 69.6579 91.452 69.7828C91.325 69.9076 91.1731 70.0054 91.0058 70.0699C90.8386 70.1343 90.6595 70.1642 90.48 70.1575C90.3056 70.2018 90.1227 70.2018 89.9483 70.1575C89.6209 70.0227 89.3606 69.7668 89.2233 69.445C89.1783 69.2737 89.1783 69.0939 89.2233 68.9225C89.2165 68.7461 89.2469 68.5701 89.3125 68.4058C89.3781 68.2414 89.4776 68.0921 89.6046 67.9672C89.7317 67.8424 89.8836 67.7446 90.0508 67.6802C90.2181 67.6157 90.3971 67.5858 90.5767 67.5925C90.7504 67.5437 90.9346 67.5437 91.1083 67.5925C91.2936 67.6408 91.4612 67.7396 91.5917 67.8775C91.7307 67.9874 91.8319 68.1367 91.8817 68.305C91.9314 68.4758 91.9314 68.6568 91.8817 68.8275H91.8333ZM93.09 50.1125L99.47 43.8425C99.8567 45.0775 100.195 46.3125 100.485 47.5475L94.4433 53.4375H85.985V57H82.6017V50.35L93.09 50.1125ZM47.3667 90.25H50.7017V95.665L48.0433 98.325C46.7867 98.04 45.53 97.7075 44.3217 97.3275L47.3667 94.335V90.25ZM59.74 87.3525V80.75H56.3567V87.5425C55.7931 87.8344 55.3116 88.2587 54.955 88.7775C54.6137 89.3028 54.4294 89.9118 54.4233 90.535C54.4233 91.4798 54.8053 92.386 55.4851 93.0541C56.1649 93.7222 57.0869 94.0975 58.0483 94.0975C58.4965 94.1693 58.9535 94.1693 59.4017 94.0975C59.8481 93.9185 60.2576 93.661 60.61 93.3375C60.9377 93.0081 61.1999 92.6215 61.3833 92.1975C61.5764 91.7799 61.6753 91.3262 61.6733 90.8675C61.6669 90.2288 61.4836 89.6039 61.1429 89.0599C60.8023 88.5159 60.3173 88.0734 59.74 87.78V87.3525ZM59.015 91.295C58.8257 91.4849 58.5828 91.6148 58.3177 91.6677C58.0526 91.7206 57.7774 91.6943 57.5277 91.592C57.278 91.4898 57.0651 91.3163 56.9167 91.094C56.7683 90.8717 56.6911 90.6109 56.695 90.345C56.6882 90.1686 56.7186 89.9926 56.7842 89.8283C56.8498 89.6639 56.9492 89.5146 57.0763 89.3897C57.2033 89.2649 57.3553 89.1671 57.5225 89.1027C57.6898 89.0382 57.8688 89.0083 58.0483 89.015C58.3188 89.0111 58.5843 89.087 58.8105 89.2329C59.0367 89.3788 59.2132 89.5879 59.3172 89.8333C59.4213 90.0787 59.4481 90.3492 59.3942 90.6097C59.3404 90.8703 59.2083 91.109 59.015 91.295ZM101.5 57C101.524 57.3321 101.524 57.6654 101.5 57.9975L96.6667 62.7475H77.3333V59.4225H95.2167L101.5 53.4375C101.5 54.625 101.5 55.8125 101.5 57ZM71.7267 38.4275L86.2267 24.1775C87.1095 24.8712 87.9488 25.6167 88.74 26.41L72.5 42.4175C72.4637 41.0551 72.2025 39.7076 71.7267 38.4275ZM25.6167 65.3125C25.1218 65.2189 24.6132 65.2189 24.1183 65.3125C23.6212 65.4537 23.16 65.6965 22.765 66.025C22.4054 66.3848 22.1111 66.8026 21.895 67.26C21.687 67.7082 21.5719 68.1926 21.5567 68.685C21.5654 69.1935 21.6806 69.6947 21.895 70.1575C22.1111 70.615 22.4054 71.0327 22.765 71.3925C23.16 71.721 23.6212 71.9638 24.1183 72.105C24.6132 72.1986 25.1218 72.1986 25.6167 72.105C26.2666 72.0987 26.9024 71.9185 27.456 71.5838C28.0095 71.249 28.4597 70.7723 28.7583 70.205H38.6667V66.88H29C28.6569 66.2969 28.1546 65.8197 27.55 65.5025C26.933 65.2764 26.267 65.211 25.6167 65.3125ZM26.4867 69.6825C26.2437 69.9236 25.9135 70.0602 25.5683 70.0625H25.085C24.8997 70.0143 24.7322 69.9154 24.6017 69.7775C24.4969 69.724 24.4043 69.6501 24.3295 69.5602C24.2547 69.4704 24.1993 69.3666 24.1667 69.255C24.117 69.0843 24.117 68.9033 24.1667 68.7325C24.1439 68.5591 24.1439 68.3835 24.1667 68.21L24.4567 67.7825L24.8917 67.4975H25.4233C25.6938 67.4936 25.9593 67.5695 26.1855 67.7154C26.4117 67.8613 26.5882 68.0704 26.6922 68.3158C26.7963 68.5613 26.8231 68.8317 26.7692 69.0922C26.7154 69.3528 26.5833 69.5915 26.39 69.7775L26.4867 69.6825ZM82.6017 78.0425L90.335 85.5C89.5617 86.3075 88.74 87.02 87.9183 87.78L81.2483 81.2725H75.6417V88.5875L80.475 93.3375C79.46 93.9075 78.3967 94.3825 77.3333 94.905L72.5 90.25V81.3675H67.6667V88.2075H64.2833V80.75H72.5C73.4132 80.7879 74.3162 80.5484 75.0859 80.0639C75.8556 79.5794 76.4547 78.8736 76.8017 78.0425H82.6017ZM58 19.475C57.0389 19.4758 56.1175 19.8517 55.4383 20.52C55.0986 20.8384 54.829 21.2218 54.6461 21.6467C54.4632 22.0715 54.3709 22.5287 54.375 22.99C54.4124 23.6298 54.6117 24.2502 54.955 24.795C55.2956 25.3514 55.7789 25.81 56.3567 26.125V28.5H58C58.579 28.4533 59.161 28.4533 59.74 28.5V26.125C60.3177 25.81 60.8011 25.3514 61.1417 24.795C61.4918 24.2561 61.6764 23.6294 61.6733 22.99C61.6146 22.0531 61.2008 21.1718 60.5133 20.52C59.8279 19.8903 58.9372 19.52 58 19.475ZM59.1117 23.75C58.9662 23.9575 58.7656 24.1218 58.5317 24.225C58.283 24.3204 58.007 24.3204 57.7583 24.225C57.4837 24.2033 57.2259 24.0862 57.031 23.8948C56.8362 23.7033 56.7171 23.4499 56.695 23.18C56.5979 22.9357 56.5979 22.6644 56.695 22.42C56.8 22.1901 56.9672 21.993 57.1783 21.85C57.427 21.708 57.713 21.6419 58 21.66H58.5317L58.9667 21.945L59.2567 22.3725C59.2794 22.546 59.2794 22.7216 59.2567 22.895C59.2998 23.1879 59.2492 23.4867 59.1117 23.75ZM43.5 80.75H43.7417V89.965L38.6667 95C37.6033 94.4775 36.6367 93.9075 35.6217 93.3375L40.455 88.5875V83.22L36.54 87.115H28.6617V88.445C28.172 88.0586 27.7041 87.6464 27.26 87.21C26.535 86.545 25.955 85.7375 25.2783 84.9775V83.79H34.945L39.7783 79.04C39.7691 79.1665 39.7691 79.2935 39.7783 79.42C40.2679 79.8874 40.8527 80.2476 41.4942 80.4768C42.1357 80.706 42.8193 80.7991 43.5 80.75ZM20.2033 62.7475L14.5 57.2375C14.5 55.67 14.5 54.15 14.5 52.4875L21.46 59.28H38.6667V62.605L20.2033 62.7475ZM25.0367 39.9475C25.1937 40.5799 25.5287 41.156 26.0033 41.61C26.6521 42.2253 27.5184 42.5692 28.42 42.5692C29.3216 42.5692 30.1879 42.2253 30.8367 41.61C31.4311 40.9569 31.7598 40.1113 31.7598 39.235C31.7598 38.3587 31.4311 37.5132 30.8367 36.86C30.3868 36.4248 29.8291 36.1126 29.2187 35.9543C28.6083 35.796 27.9665 35.7971 27.3567 35.9575L23.0067 31.54C22.33 32.395 21.7017 33.25 21.1217 34.1525L25.2783 38C25.0676 38.6304 25.0508 39.3078 25.23 39.9475H25.0367ZM27.7433 38C27.9982 37.7828 28.3243 37.6632 28.6617 37.6632C28.9991 37.6632 29.3251 37.7828 29.58 38C29.7051 38.1254 29.8036 38.274 29.87 38.437C29.9364 38.6001 29.9692 38.7744 29.9667 38.95C29.9643 39.2893 29.8253 39.6138 29.58 39.8525C29.3251 40.0697 28.9991 40.1893 28.6617 40.1893C28.3243 40.1893 27.9982 40.0697 27.7433 39.8525C27.5597 39.5856 27.459 39.2721 27.4533 38.95C27.4524 38.6121 27.5533 38.2816 27.7433 38ZM39.1017 77.9475H21.4117L20.6383 78.7075C20.0583 77.71 19.4783 76.76 18.995 75.715L20.1067 74.6225H38.6667V76C38.69 76.6698 38.8374 77.3297 39.1017 77.9475ZM67.6667 91.4375L72.5 96.425V97.1375C71.3883 97.5175 70.2767 97.945 69.1167 98.23V97.85L64.96 93.765L67.6667 91.4375ZM85.405 38C84.7731 38.1015 84.1852 38.3822 83.7133 38.8075C83.1189 39.4607 82.7903 40.3062 82.7903 41.1825C82.7903 42.0588 83.1189 42.9044 83.7133 43.5575C84.3779 44.1417 85.2383 44.4647 86.13 44.4647C87.0217 44.4647 87.8821 44.1417 88.5467 43.5575C88.9656 43.1011 89.2641 42.5505 89.4158 41.9542C89.5675 41.3578 89.5678 40.734 89.4167 40.1375L94.975 34.675C94.395 33.7725 93.815 32.87 93.1867 32.015L87.2417 38C86.6412 37.8336 86.0055 37.8336 85.405 38ZM87.6283 41.23C87.6734 41.4014 87.6734 41.5812 87.6283 41.7525C87.5664 41.9044 87.4852 42.0481 87.3867 42.18C87.2656 42.3063 87.1168 42.4038 86.9517 42.465C86.6091 42.5928 86.2309 42.5928 85.8883 42.465C85.7232 42.4038 85.5744 42.3063 85.4533 42.18C85.2323 41.9295 85.1106 41.6091 85.1106 41.2775C85.1106 40.9459 85.2323 40.6255 85.4533 40.375C85.7148 40.1694 86.037 40.0527 86.3717 40.0425C86.6903 40.0595 86.9951 40.176 87.2417 40.375C87.379 40.4784 87.494 40.6076 87.58 40.755C87.6098 40.8796 87.626 41.007 87.6283 41.135V41.23ZM94.2017 75.2875L96.2317 77.2825C95.6517 78.28 95.12 79.325 94.4917 80.275L91.8333 77.52L94.2017 75.2875ZM22.8133 52.25L16.095 45.7425C16.4333 44.6025 16.82 43.415 17.255 42.275L24.1667 49.02H31.1267V45.9325H34.51V52.25H22.8133ZM69.31 20.3775H65.9267V15.01C67.0867 15.01 68.1983 15.485 69.31 15.77V20.3775ZM72.0167 27.55C72.4278 27.7817 72.8963 27.8968 73.37 27.8825C73.9085 27.8752 74.438 27.7451 74.9167 27.5025C75.4146 27.2797 75.8469 26.9365 76.1733 26.505C76.5137 26.0734 76.7456 25.5689 76.85 25.0325C76.9701 24.5167 76.9701 23.9808 76.85 23.465L80.2333 20.14L77.0917 18.4775L74.4817 21.0425C73.8646 20.8769 73.2137 20.8769 72.5967 21.0425C71.977 21.1874 71.4191 21.5197 71.0017 21.9925C70.4072 22.6457 70.0786 23.4912 70.0786 24.3675C70.0786 25.2438 70.4072 26.0894 71.0017 26.7425C71.2589 27.1211 71.6077 27.4312 72.0167 27.645V27.55ZM72.5 23.75C72.7549 23.5328 73.0809 23.4132 73.4183 23.4132C73.7557 23.4132 74.0818 23.5328 74.3367 23.75C74.4652 23.869 74.5644 24.0152 74.6267 24.1775C74.7567 24.5141 74.7567 24.8859 74.6267 25.2225C74.5644 25.3848 74.4652 25.5311 74.3367 25.65C74.0818 25.8672 73.7557 25.9868 73.4183 25.9868C73.0809 25.9868 72.7549 25.8672 72.5 25.65C72.2518 25.3939 72.1133 25.0537 72.1133 24.7C72.1133 24.3463 72.2518 24.0061 72.5 23.75ZM45.24 16.15L52.2967 23.1325V29.6875C51.0789 30.2127 49.9405 30.8999 48.9133 31.73V24.4625L41.8083 17.4325C42.9293 16.948 44.0747 16.52 45.24 16.15ZM39.2467 26.1725L34.4133 21.4225C35.38 20.805 36.395 20.2825 37.4583 19.7125L41.8083 23.9875L39.2467 26.1725ZM29.9183 24.4625L44.4183 38.7125C43.9353 40.0135 43.6266 41.3707 43.5 42.75L27.4533 26.695C28.2267 25.935 29 25.175 29.9183 24.4625Z" fill="#0274F1"/>
</g>
<defs>
<clipPath id="clip0_1_2216">
<rect width="116" height="114" fill="white"/>
</clipPath>
</defs>
</svg>
