<svg width="102" height="99" viewBox="0 0 102 99" fill="none" xmlns="http://www.w3.org/2000/svg">
<g clip-path="url(#clip0_1_2238)">
<path d="M51 0C22.8323 0 0 22.1607 0 49.5C0 76.8393 22.8323 99 51 99C79.1677 99 102 76.8393 102 49.5C102 22.1607 79.1677 0 51 0ZM51 91.2656C27.2338 91.2656 7.96875 72.5672 7.96875 49.5C7.96875 26.4328 27.2338 7.73438 51 7.73438C74.7662 7.73438 94.0312 26.4328 94.0312 49.5C94.0312 72.5672 74.7662 91.2656 51 91.2656Z" fill="white"/>
<path fill-rule="evenodd" clip-rule="evenodd" d="M63.1025 41.9226H54.2311V35.6385C54.2311 33.7109 56.2855 33.2638 57.2443 33.2638C58.1968 33.2638 62.975 33.2638 62.975 33.2638V24.7833L56.407 24.75C47.4453 24.75 45.4002 31.0734 45.4002 35.128V41.9228H38.8975V50.6602H45.4002C45.4002 61.8781 45.4002 74.25 45.4002 74.25H54.2311C54.2311 74.25 54.2311 61.7511 54.2311 50.6602H61.7329L63.1025 41.9226Z" fill="#0274F1"/>
</g>
<defs>
<clipPath id="clip0_1_2238">
<rect width="102" height="99" fill="white"/>
</clipPath>
</defs>
</svg>
